<svg width="131" height="26" viewBox="0 0 131 26" fill="none" xmlns="http://www.w3.org/2000/svg">
<g clip-path="url(#clip0_777_37475)">
<path d="M30.1486 3H1.69851C0.76045 3 0 3.76045 0 4.69851V21.3015C0 22.2395 0.76045 23 1.69851 23H30.1486C31.0867 23 31.8471 22.2395 31.8471 21.3015V4.69851C31.8471 3.76045 31.0867 3 30.1486 3Z" fill="#00425F"/>
<path d="M6.6366 17.0452C9.33971 17.0452 11.531 14.8539 11.531 12.1508C11.531 9.44765 9.33971 7.25635 6.6366 7.25635C3.93349 7.25635 1.74219 9.44765 1.74219 12.1508C1.74219 14.8539 3.93349 17.0452 6.6366 17.0452Z" fill="#EE312A"/>
<path d="M6.63828 14.2472C5.5436 11.7656 4.74083 9.44751 4.74083 9.44751H3.0625C3.0625 9.44751 4.08402 12.423 5.98147 16.1439H7.29509C9.19254 12.423 10.2141 9.44751 10.2141 9.44751H8.53573C8.53573 9.44751 7.73297 11.7656 6.63828 14.2472Z" fill="white"/>
<path d="M30.0684 13.9387H26.7848C26.7848 13.9387 26.8578 15.0335 28.3172 15.0335C29.0468 15.0335 29.7766 14.8143 29.7766 14.8143L29.9225 15.9818C29.9225 15.9818 29.1928 16.2737 28.1712 16.2737C26.7119 16.2737 25.3984 15.544 25.3984 13.5009C25.3984 11.8956 26.42 10.874 27.8794 10.874C30.0684 10.874 30.2144 13.0631 30.0684 13.9387ZM27.8064 11.8956C26.8578 11.8956 26.7848 12.9171 26.7848 12.9171H28.8279C28.8279 12.9171 28.755 11.8956 27.8064 11.8956Z" fill="white"/>
<path d="M18.7833 12.2038L19.0022 11.0363C19.0022 11.0363 17.3116 10.5233 15.9375 11.4741V16.144H17.397L17.3968 12.3497C17.9806 11.9119 18.7833 12.2038 18.7833 12.2038Z" fill="white"/>
<path d="M14.7951 13.9387H11.5115C11.5115 13.9387 11.5844 15.0335 13.0438 15.0335C13.7735 15.0335 14.5031 14.8143 14.5031 14.8143L14.6491 15.9818C14.6491 15.9818 13.9194 16.2737 12.8979 16.2737C11.4384 16.2737 10.125 15.544 10.125 13.5009C10.125 11.8956 11.1466 10.874 12.606 10.874C14.7951 10.874 14.941 13.0631 14.7951 13.9387ZM12.533 11.8956C11.5844 11.8956 11.5115 12.9171 11.5115 12.9171H13.5546C13.5546 12.9171 13.4816 11.8956 12.533 11.8956Z" fill="white"/>
<path d="M22.3273 14.3938C21.8736 13.2905 21.5076 12.1532 21.2327 10.9924L19.7734 10.9926C19.7734 10.9926 20.5031 13.8098 21.7437 16.1442H22.9109C24.1514 13.8098 24.8811 10.9931 24.8811 10.9931H23.4218C23.1468 12.1537 22.7808 13.2907 22.3273 14.3938Z" fill="white"/>
</g>
<g clip-path="url(#clip1_777_37475)">
<path d="M55.4271 20.5833C59.6152 20.5833 63.0104 17.1881 63.0104 13C63.0104 8.8118 59.6152 5.41663 55.4271 5.41663C51.2389 5.41663 47.8438 8.8118 47.8438 13C47.8438 17.1881 51.2389 20.5833 55.4271 20.5833Z" fill="#EA001B"/>
<path d="M66.263 20.5833C70.4512 20.5833 73.8464 17.1881 73.8464 13C73.8464 8.8118 70.4512 5.41663 66.263 5.41663C62.0749 5.41663 58.6797 8.8118 58.6797 13C58.6797 17.1881 62.0749 20.5833 66.263 20.5833Z" fill="#FFA200" fill-opacity="0.8"/>
</g>
<g clip-path="url(#clip2_777_37475)">
<path d="M110.829 10.6393C110.805 12.443 112.455 13.4495 113.698 14.048C114.975 14.662 115.404 15.0557 115.399 15.6049C115.389 16.4452 114.38 16.816 113.436 16.8305C111.789 16.8557 110.831 16.391 110.069 16.0395L109.476 18.7834C110.24 19.1313 111.655 19.4347 113.122 19.448C116.565 19.448 118.818 17.7683 118.83 15.1641C118.843 11.859 114.204 11.676 114.235 10.1987C114.246 9.75078 114.679 9.27276 115.627 9.15122C116.096 9.08982 117.391 9.04283 118.859 9.711L119.436 7.05618C118.646 6.77206 117.631 6.5 116.367 6.5C113.126 6.5 110.847 8.20253 110.829 10.6393ZM124.973 6.72867C124.344 6.72867 123.815 7.09111 123.578 7.64729L118.659 19.253H122.1L122.785 17.383H126.99L127.387 19.253H130.42L127.773 6.72867H124.973ZM125.455 10.112L126.448 14.815H123.728L125.455 10.112ZM106.657 6.72883L103.944 19.2528H107.223L109.934 6.72852H106.657V6.72883ZM101.806 6.72852L98.3933 15.2532L97.0128 8.00502C96.8508 7.19589 96.2111 6.72867 95.5007 6.72867H89.9219L89.8438 7.09236C90.9891 7.33795 92.2903 7.73406 93.0787 8.15789C93.5612 8.41679 93.6988 8.64312 93.8573 9.25835L96.472 19.253H99.937L105.249 6.72867H101.806" fill="url(#paint0_linear_777_37475)"/>
</g>
<defs>
<linearGradient id="paint0_linear_777_37475" x1="108.498" y1="19.7077" x2="108.868" y2="6.4097" gradientUnits="userSpaceOnUse">
<stop stop-color="#222357"/>
<stop offset="1" stop-color="#254AA5"/>
</linearGradient>
<clipPath id="clip0_777_37475">
<rect width="31.8471" height="20" fill="white" transform="translate(0 3)"/>
</clipPath>
<clipPath id="clip1_777_37475">
<rect width="26" height="26" fill="white" transform="translate(47.8438)"/>
</clipPath>
<clipPath id="clip2_777_37475">
<rect width="40.5758" height="13" fill="white" transform="translate(89.8438 6.5)"/>
</clipPath>
</defs>
</svg>
