<svg xmlns:x="http://ns.adobe.com/Extensibility/1.0/" xmlns:i="http://ns.adobe.com/AdobeIllustrator/10.0/" xmlns:graph="http://ns.adobe.com/Graphs/1.0/" xmlns="http://www.w3.org/2000/svg" xmlns:xlink="http://www.w3.org/1999/xlink" fill="#000000" version="1.1" id="Layer_1" width="24px" height="24px" viewBox="0 0 24 24" enable-background="new 0 0 24 24" xml:space="preserve">
<metadata>
	<sfw xmlns="http://ns.adobe.com/SaveForWeb/1.0/">
		<slices>

</slices>
		<sliceSourceBounds width="505" height="984" bottomLeftOrigin="true" x="0" y="-984">

</sliceSourceBounds>
	</sfw>
</metadata>
<g>
	<g>
		<g>
			<path d="M20.2,20H3.8C1.7,20,0,18.3,0,16.2V3.8C0,1.7,1.7,0,3.8,0h16.3C22.3,0,24,1.7,24,3.8v12.3C24,18.3,22.3,20,20.2,20z      M3.8,2C2.8,2,2,2.8,2,3.8v12.3c0,1,0.8,1.8,1.8,1.8h16.3c1,0,1.8-0.8,1.8-1.8V3.8c0-1-0.8-1.8-1.8-1.8H3.8z"/>
		</g>
	</g>
	<g>
		<g>
			<rect x="1" y="14" width="22" height="2"/>
		</g>
	</g>
	<g>
		<g>
			<path d="M16,24H8c-0.6,0-1-0.4-1-1s0.4-1,1-1h8c0.6,0,1,0.4,1,1S16.6,24,16,24z"/>
		</g>
	</g>
	<g>
		<g>
			<path d="M8,24c-0.6,0-1-0.4-1-1s0.4-1,1-1c0.2,0,1-1,1-3c0-0.6,0.4-1,1-1s1,0.4,1,1C11,21.9,9.7,24,8,24z"/>
		</g>
	</g>
	<g>
		<g>
			<path d="M16,24c-1.7,0-3-2.1-3-5c0-0.6,0.4-1,1-1s1,0.4,1,1c0,2,0.8,3,1,3c0.6,0,1,0.4,1,1S16.6,24,16,24z"/>
		</g>
	</g>
</g>
<script xmlns=""/></svg>