<svg width="241" height="307" viewBox="0 0 241 307" fill="none" xmlns="http://www.w3.org/2000/svg">
<path d="M66.7656 210.334L71.8213 226.208L78.4327 222.633L71.5724 207.628C71.5724 207.628 67.0923 210.071 66.7656 210.334Z" fill="#79E1CF"/>
<path d="M99.4948 165.303C107.982 162.778 116.194 159.32 123.996 154.988L162.606 161.384C162.606 161.384 169.668 165.697 170.524 165.828C172.94 165.62 175.36 166.193 177.462 167.468C180.309 169.55 186.002 169.55 187.48 169.813C189.614 170.54 191.653 171.548 193.547 172.814C195.025 173.732 201.589 175.946 202.709 176.733C203.829 177.52 206.412 178.373 207.034 181.653C207.904 185.683 208.425 189.789 208.589 193.919C208.465 196.92 207.734 205.005 206.614 208.137C205.494 211.269 200.671 227.569 200.391 229.455C200.111 231.341 199.536 244.066 198.836 246.69C198.136 249.314 194.76 263.089 194.169 265.598C193.578 268.107 189.098 280.603 188.351 282.817C187.604 285.031 186.484 289.081 186.795 290.77C187.245 292.6 187.371 294.501 187.169 296.378C186.92 298.478 188.538 308.776 188.04 309.497C187.542 310.219 170.213 311.055 164.161 309.104C158.11 307.152 133.967 309.891 124.182 309.366C114.398 308.842 88.5435 308.579 84.8412 307.726C81.1388 306.874 76.5498 306.693 78.7743 304.086C80.9988 301.479 81.2477 297.822 81.3722 294.247C81.6979 291.015 82.3178 287.825 83.2233 284.719L75.4453 228.553L86.8635 203.955L99.4948 165.303Z" fill="url(#paint0_linear_208_11703)"/>
<path d="M206.911 149.232C208.856 150.676 208.607 150.364 206.911 150.594C205.215 150.823 204.329 150.889 204.126 152.053C203.961 153.001 203.705 153.929 203.364 154.824C203.285 154.762 203.211 154.69 203.146 154.611C200.035 149.79 202.446 151.036 196.737 150.544C195.602 150.544 198.729 149.429 199.646 147.265C199.989 146.461 198.386 143.46 199.289 143.985C202.026 145.51 201.14 144.952 201.482 145.166C202.509 145.838 205.558 143.198 206.724 142.837C207.082 145.494 204.204 147.133 206.911 149.232Z" fill="#FFEAB6"/>
<path d="M229.935 98.3963C230.697 98.6915 228.379 99.3967 227.43 100.151C225.874 101.365 227.337 102.381 227.212 104.087C225.999 103.546 224.63 100.807 222.825 100.807C219.574 101.955 219.372 102.447 218.796 102.447C218.983 101.217 221.721 98.7243 220.165 97.396C219.559 96.904 218.05 94.559 218.812 94.7394C221.83 95.4774 221.814 95.6249 222.39 95.1986C225.423 93.0011 225.501 89.623 226.061 94.2474C226.543 98.3963 225.563 96.7565 229.935 98.3963Z" fill="#FFEAB6"/>
<path d="M226.156 44.3778C226.078 44.4926 226.016 44.6402 225.907 44.6894C221.987 46.8212 221.722 46.5589 221.956 47.9692C222.547 51.8557 222.407 51.2489 222.313 51.9213C218.16 47.9527 219.809 48.4611 219.202 48.3463C218.051 48.1659 215.904 49.527 213.835 49.9862C213.12 49.9862 213.4 49.8222 215.189 46.7064C217.164 43.3119 207.551 39.2942 215.889 41.7868C217.444 42.2624 217.164 42.0328 219.996 38.0151C220.898 36.7196 220.322 42.574 222.422 42.7707C223.154 42.7707 224.165 43.6891 225.829 44.0826C225.952 44.1631 226.063 44.2626 226.156 44.3778Z" fill="#FFEAB6"/>
<path d="M65.2452 115.778C73.1477 113.908 65.2452 116.532 67.003 119.648C68.4497 122.337 69.0409 122.091 66.2252 121.435C62.9585 120.665 64.4363 120.435 61.0451 124.059C60.6406 124.502 61.1228 122.698 61.2473 120.993C61.3873 118.959 57.6538 118.303 57.1094 117.237C57.3738 117.237 56.9071 117.237 59.3028 116.991C62.2584 116.729 60.8584 114.974 62.1495 112.187C63.2073 113.154 64.2963 115.991 65.2452 115.778Z" fill="#FFEAB6"/>
<path d="M81.1437 78.9146C81.5326 79.6034 79.5883 78.9146 76.8348 77.8323C75.2792 77.2255 75.6369 75.9956 71.9657 81.4072C70.55 83.5227 72.6191 76.75 70.2702 75.8317C64.95 73.7326 64.9499 74.1918 70.799 71.9615C72.0746 71.4696 71.4679 68.5342 72.3546 66.0088C77.9081 71.486 73.2257 71.0268 81.346 69.059C80.1481 72.4371 77.6592 73.4046 79.0903 75.1593C79.885 76.3406 80.5724 77.5978 81.1437 78.9146Z" fill="#FFEAB6"/>
<path d="M123.562 175.159C124.293 178.799 125.009 179.226 124.2 179.095C117.153 177.93 110.277 170.584 108.861 164.418C108.597 163.253 108.41 163.368 109.593 162.942C113.062 161.646 114.851 160.252 114.415 161.072C113.544 162.712 114.166 164.828 114.057 165.582C113.653 168.419 115.519 170.813 118.211 172.322C118.568 172.519 118.444 172.486 120.824 172.65C122.38 172.256 122.582 172.092 122.769 172.65C123.117 173.455 123.383 174.295 123.562 175.159Z" fill="#FEDFBA"/>
<path d="M179.003 50.3154C183.265 52.2012 184.463 52.4964 181.585 53.2507C179.781 52.7916 179.563 52.7588 178.474 50.4302C178.365 50.135 178.707 50.1842 179.003 50.3154Z" fill="#E6FCFF"/>
<path d="M187.529 49.5932C187.793 49.5932 187.778 49.79 187.669 49.9375C187.031 50.8395 186.3 52.1678 185.102 51.3642C181.991 49.2488 175.924 48.2813 177.589 45.5427C178.273 44.4276 177.713 45.7067 181.26 47.3137C185.102 49.052 186.487 49.7244 187.529 49.5932Z" fill="#E6FCFF"/>
<path d="M188.809 46.0509C189.758 46.1493 188.591 47.9368 187.082 47.904C184.578 46.9856 177.033 44.0667 179.118 42.3284C179.367 42.1316 179.242 41.5741 179.6 41.6069C180.222 41.6069 179.398 42.2956 183.52 44.0339C187.642 45.7721 188 45.9197 188.809 46.0509Z" fill="#E6FCFF"/>
<path d="M181.013 38.0977C189.258 44.6572 192.525 41.279 190.036 44.3292C189.569 44.9031 187.765 43.9356 187.08 43.6732C183.751 42.3777 178.198 40.5083 181.013 38.0977Z" fill="#E6FCFF"/>
<path d="M202.819 26.4381C203.301 26.5857 202.943 27.7828 202.508 27.5368C200.859 26.6513 202.243 26.2413 202.819 26.4381Z" fill="#FFD152"/>
<path d="M186.384 21.9453C185.528 22.6833 185.139 21.2566 185.699 21.0926C185.886 21.0434 186.213 21.6666 186.384 21.9453Z" fill="#FFD152"/>
<path d="M192.245 8.53095C211.519 8.41616 215.672 35.1462 195.636 37.5568C193.022 37.8848 192.525 37.0976 191.716 38.1963C190.254 40.3774 191.202 41.3613 190.005 41.0333C187.56 40.3748 185.229 39.312 183.098 37.8848C181.122 36.6221 184.653 36.2449 183.627 33.8999C182.6 31.5548 182.553 33.3423 180.935 30.6201C173.453 18.0422 184.062 8.05539 192.245 8.53095ZM201.858 29.423C202.838 31.9812 205.887 25.9301 203.538 25.1265C201.189 24.323 200.567 26.0612 200.194 25.9628C196.585 25.1101 198.825 25.6021 196.74 24.4706C195.776 23.9458 195.014 25.1757 194.236 24.0114C193.007 22.1419 193.894 24.0114 188.122 21.5844C187.718 21.4204 187.5 20.83 187.189 20.4365C186.878 20.0429 186.396 20.0429 185.82 19.8789C184.14 19.4033 183.176 23.0275 185.82 23.503C186.1 23.503 186.302 23.503 186.209 24.0114C185.618 26.6844 189.056 28.931 188.371 30.2265C187.442 32.1013 186.786 34.1139 186.427 36.1957C186.349 36.6876 186.769 36.4253 186.94 36.5729C187.593 37.1632 187.905 34.0802 189.585 30.7513C190.72 28.5375 187.422 26.3236 187.5 24.4214C187.593 21.9779 188.496 23.3718 190.611 24.077C191.794 24.4706 192.696 24.077 193.023 24.8969C193.234 25.3351 193.588 25.6787 194.018 25.8653C194.45 26.0519 194.929 26.069 195.371 25.9137C196.803 25.5201 196.429 26.6844 198.109 27.0616C199.789 27.4387 199.774 27.3567 199.774 28.0127C199.774 28.2423 199.774 28.4883 199.509 28.5539C198.71 28.8415 197.947 29.2326 197.238 29.7182C196.351 30.1609 196.74 29.4066 195.263 30.4233C193.038 31.9484 193.411 30.9809 192.478 31.7516C190.922 33.0799 187.516 36.868 188.605 37.77C189.693 38.6719 189.818 36.3105 192.027 34.1786C194.236 32.0468 193.894 33.0799 194.64 32.5388C196.196 31.522 196.414 31.3744 196.647 31.358C197.985 31.2432 199.012 30.0625 200.023 29.9641C201.392 29.833 201.034 28.5703 201.329 28.6686C201.625 28.767 201.749 29.1442 201.858 29.423Z" fill="#FFD152"/>
<path d="M68.5268 23.6994C68.7711 24.5515 68.7644 25.4617 68.5073 26.3097C68.2503 27.1575 67.7551 27.9032 67.0872 28.4478C66.4192 28.9925 65.6102 29.3105 64.7671 29.3598C63.924 29.409 63.0866 29.1874 62.3656 28.7238C61.6447 28.2604 61.0743 27.577 60.7298 26.7643C60.3854 25.9516 60.2831 25.0478 60.4367 24.1725C60.5902 23.2971 60.9923 22.4916 61.5897 21.8625C62.1872 21.2333 62.9516 20.8103 63.7822 20.6492C64.7901 20.4575 65.8296 20.6621 66.7041 21.2243C67.5785 21.7863 68.2271 22.6671 68.5268 23.6994Z" fill="#9EDEFF"/>
<path d="M53.1074 37.8191C53.7918 36.9992 54.663 36.1792 55.083 37.2779C55.083 37.2779 40.9425 53.9391 40.9114 53.9719C39.7603 53.1355 39.3091 54.841 53.1074 37.8191Z" fill="#9EDEFF"/>
<path d="M62.4927 52.3156C62.7727 53.0207 62.6483 52.7583 52.848 62.9912C52.3502 63.5323 52.5835 63.5159 52.0391 55.3002C52.0391 54.5294 58.2615 49.3966 60.2682 46.8712C62.2749 44.3458 61.746 44.7721 62.4927 52.3156Z" fill="#9EDEFF"/>
<path d="M45.4375 31.1609C46.6354 30.9969 43.2441 33.8995 40.7707 37.8352C40.2107 38.688 38.0951 41.6725 37.2706 41.7873C37.2706 41.7873 29.4926 42.0333 29.4926 41.9841C29.2748 41.6725 33.4283 37.4908 37.2706 32.85C37.7529 32.0792 37.7529 32.2104 45.4375 31.1609Z" fill="#9EDEFF"/>
<path d="M83.2544 7.36654C83.1017 9.68697 82.6192 11.97 81.8232 14.1392C78.0742 23.7817 78.4009 22.9126 77.3742 20.9775C72.614 12.0402 66.0183 11.1383 67.2628 10.3347C70.4177 7.8857 73.9635 6.05287 77.732 4.92315C83.6277 3.28328 82.9744 4.92315 83.2544 7.36654Z" fill="#FF8E92"/>
<path d="M177.629 127.438C176.432 123.125 179.387 112.253 180.274 109.842C181.477 105.496 181.826 100.938 181.301 96.4446C180.678 91.3118 177.256 82.6204 175.452 78.4059C173.647 74.1915 165.807 66.3856 163.318 64.3522C160.829 62.3187 148.897 57.0383 144.651 55.0705C140.404 53.1026 132.766 52.6599 132.766 52.6599C131.626 51.1564 130.036 50.1055 128.255 49.6795C126.475 49.2534 124.609 49.4774 122.965 50.3148C118.299 52.4959 117.521 57.7435 117.116 57.8583C107.472 57.7435 106.118 65.9429 106.118 65.9429C102.54 69.7638 103.536 72.1744 105.029 74.6834C106.523 77.1924 111.361 77.258 111.361 77.258C111.361 77.258 140.777 70.5181 149.753 85.277C158.729 100.036 155.198 124.109 155.198 124.109L155.446 148.019C156.871 149.445 158.652 150.413 160.581 150.812C162.509 151.21 164.505 151.02 166.336 150.265C160.751 145.772 161.824 143.214 161.824 143.214C170.287 148.724 174.02 143.214 174.02 143.214C172.583 142.917 171.235 142.254 170.096 141.283C168.957 140.31 168.061 139.059 167.487 137.638C169.98 138.435 172.554 138.913 175.156 139.065C182.11 139.77 183.665 135.785 183.665 135.785C183.665 135.785 178.812 131.751 177.629 127.438Z" fill="#2C333A"/>
<path d="M118.056 139.393C117.622 138.882 117.381 138.219 117.381 137.532C117.381 136.844 117.622 136.182 118.056 135.671C108.489 129.455 110.542 124.323 108.489 125.356C106.288 126.38 103.936 127.001 101.535 127.192C100.913 127.389 103.262 131.62 108.442 133.44C112.829 134.982 103.775 139.393 102.391 139.508C100.135 139.688 109.656 145.707 115.054 141.869C115.181 141.761 115.338 141.697 115.5 141.688C115.663 141.678 115.825 141.722 115.962 141.815C116.1 141.908 116.206 142.043 116.267 142.203C116.328 142.363 116.338 142.539 116.298 142.706C115.861 144.997 115.078 147.2 113.98 149.232C116.671 149.741 119.752 147.871 121.992 146.264C122.583 145.854 122.365 145.133 122.598 144.624C122.692 144.395 120.732 142.87 118.056 139.393Z" fill="#2C333A"/>
<path d="M93.5563 159.596C96.4029 165.828 96.5273 165.516 95.8273 165.779L64.202 176.782C63.8286 176.782 64.342 177.717 57.3106 163.056C56.9528 162.318 55.0706 163.319 77.2691 155.48C81.127 154.119 84.7982 152.758 88.9205 151.331C89.9784 150.97 89.0917 149.855 93.5563 159.596ZM89.3094 164.926C88.6405 163.712 88.1116 164.549 87.2872 164.581C87.0849 164.581 66.9398 171.141 65.5087 171.863C64.8087 172.174 64.1709 173.158 65.0264 173.388C65.3531 173.47 88.1116 166.385 89.3094 164.926ZM84.4249 158.006C84.9226 157.743 85.2649 156.825 84.2071 156.595C84.0204 156.595 82.8226 156.972 81.0958 157.432C74.9512 159.071 74.0956 160.285 72.5089 160.252C70.6733 160.252 70.7511 161.039 68.0132 161.679C61.7908 163.138 62.8019 163.762 61.1374 163.844C60.9352 163.844 60.6085 164.352 60.5463 164.549C60.4063 165.139 62.1019 165.483 62.9108 165.008C64.6407 164.028 66.5298 163.399 68.4799 163.155C71.0466 162.679 70.9533 161.81 72.4622 161.892C75.3401 161.482 76.429 160.252 79.0425 159.563C81.6559 158.875 82.4337 159.071 84.4249 158.006ZM80.3336 163.991C80.5939 164.009 80.8519 163.928 81.0603 163.763C81.2687 163.596 81.4138 163.358 81.4692 163.089C81.4692 161.203 75.2468 164.204 72.3067 164.729C69.631 165.205 63.5486 167.074 62.6619 168.091C62.0397 168.812 62.3819 169.222 63.2219 169.271C66.3332 168.156 65.9131 168.009 67.0332 167.632C73.5045 165.713 69.0555 167.287 75.9157 165.205C79.0269 164.319 79.2291 163.991 80.3336 163.991Z" fill="#FFF5DB"/>
<path d="M68.8696 203.857C69.3363 204.857 67.6251 205.415 66.6296 205.612C66.0384 205.202 67.3451 207.481 53.0958 177.226C43.9799 158.105 43.9799 158.875 44.9133 158.875C49.7668 158.892 42.2532 147.593 68.8696 203.857Z" fill="#79E1CF"/>
<path d="M48.3623 170.797C65.6917 207.858 65.3651 206.153 64.6184 206.432C55.2847 209.81 59.9515 216.271 58.9871 218.485C58.4737 217.714 26.3193 148.265 26.1016 147.691C26.3505 147.593 25.5104 147.15 39.1375 155.727C43.5088 158.482 40.9732 154.972 48.3623 170.797Z" fill="#79E1CF"/>
<path d="M96.2464 152.626C90.9424 141.032 91.3002 141.721 90.8646 141.885C86.1978 143.64 61.7748 152.183 57.6524 153.61C47.4943 157.152 48.1321 156.463 48.7544 157.743C72.5552 206.791 68.9773 204.02 71.6996 203.249C74.8886 203.167 72.7574 208.759 72.8663 209.054C72.9752 209.349 73.753 211.399 74.1885 211.235C75.1281 210.805 76.0887 210.426 77.0664 210.104C79.2651 209.761 81.4071 209.093 83.4288 208.12C87.7845 205.775 87.8468 213.138 82.3399 215.975C80.8502 216.93 79.2504 217.679 77.5798 218.205C77.2998 218.205 77.2375 218.434 77.362 218.697C78.482 221.189 78.202 220.993 78.9176 220.993C87.3179 220.993 86.3223 219.566 92.1402 218.27C93.8514 217.877 94.5663 220.091 93.8981 221.55C93.7425 221.878 94.007 221.845 94.333 221.747C94.333 221.747 122.334 213.006 123.547 212.596C124.761 212.186 124.185 213.662 96.2464 152.626ZM96.8686 167.073C96.6197 167.172 67.6861 177.29 64.2015 178.372C62.9104 178.225 63.1593 178.963 55.9568 163.171C54.9924 161.071 53.7168 162.055 89.169 149.625C90.5691 149.133 90.5068 149.625 92.4514 153.823C97.7086 165.204 98.8598 166.352 96.8686 167.073Z" fill="#79E1CF"/>
<path d="M180.742 248.345C182.298 250.789 182.656 246.951 169.729 266.187C168.327 268.187 166.811 270.093 165.186 271.894C162.993 274.567 161.235 277.552 157.766 280.356C149.646 286.915 143.563 285.275 136.485 276.535C135.413 274.615 134.651 272.52 134.23 270.336C133.219 266.023 131.414 264.826 130.154 259.939C126.856 247.165 130.45 185.44 130.776 185.128C132.114 183.833 130.03 184.472 127.027 180.34C124.585 177.06 125.721 173.551 120.805 165.122C120.706 164.893 120.56 164.693 120.377 164.533C120.193 164.374 119.978 164.261 119.747 164.203C118.798 164.039 119.576 165.335 120.011 166.352C120.665 167.844 119.327 166.893 119.078 166.876C118.44 166.794 118.005 167.565 120.183 168.91C120.447 169.074 121.163 169.09 121.349 169.353C121.532 169.719 121.663 170.111 121.738 170.517C121.738 170.746 121.738 170.812 121.536 170.828C119.825 171.042 119.078 171.419 117.663 170.156C116.854 169.434 115.407 167.795 115.438 166.679C115.516 163.4 114.987 161.76 117.663 160.12C118.705 159.513 118.891 158.48 118.954 157.267C119.063 155.036 121.194 156.25 122.065 153.347C123.309 149.215 129.003 152.855 128.178 150.543C125.658 143.574 117.756 139.064 118.845 137.063C119.871 135.309 123.62 138.572 124.585 139.753C127.603 143.344 133.141 148.231 133.639 151.642C133.95 153.692 135.303 154.397 136.656 159.185C139.099 167.778 141.868 171.435 142.194 180.93C142.708 195.689 157.159 252.33 157.175 252.379C157.579 253.265 158.544 252.888 158.497 251.97C157.937 240.966 152.119 228.831 153.55 228.749C155.91 228.577 158.27 229.063 160.395 230.159C161.826 231.291 170.662 239.572 171.44 240.343C174.831 243.524 178.424 244.606 180.742 248.345Z" fill="#FEDFBA"/>
<path d="M163.135 109.235C169.7 103.381 177.462 108.137 170.913 119.189C169.606 121.37 168.3 123.256 162.591 125.749C155.17 129.029 154.284 109.006 154.144 145.427C154.144 155.759 155.201 158.858 168.968 165.893C169.513 166.172 164.737 169.927 164.706 169.944C156.415 176.208 161.284 173.223 152.106 177.11C150.55 177.733 144.125 180.537 144.017 179.504C142.772 168.533 140.283 166.024 138.572 159.596C137.016 153.922 135.274 152.479 135.119 150.577C134.901 147.789 128.896 142.377 128.165 141.393C127.901 141.065 127.932 140.934 128.321 140.787C145.852 134.768 143.192 130.193 141.419 131.292C137.81 133.506 121.647 139.606 114.118 130.505C105.858 120.501 105.671 102.741 109.093 103.857C110.508 104.186 111.981 104.101 113.353 103.609C114.723 103.118 115.94 102.239 116.871 101.069C117.774 100.118 116.871 103.742 121.227 104.578C122.129 104.758 122.471 103.594 121.927 103.315C120.605 102.61 119.36 102.282 118.645 99.9372C118.085 98.117 123.467 99.5765 123.311 95.3128C123.311 94.1813 122.269 94.1485 122.036 95.1652C121.616 96.9199 122.036 96.6575 119.547 97.1495C119.329 97.1495 119.267 97.1495 119.345 96.8707C120.714 92.3282 120.278 91.0327 121.678 89.934C122.285 89.5604 122.976 89.3652 123.677 89.3692C124.38 89.3732 125.068 89.576 125.671 89.9564C126.274 90.3369 126.768 90.881 127.103 91.5319C127.438 92.1828 127.601 92.9167 127.574 93.6565C127.776 99.0189 132.707 106.874 138.463 106.644C146.614 106.3 148.963 97.4446 150.441 96.4771C151.421 95.8212 152.448 96.2311 156.586 98.9041C157.799 99.6749 154.268 107.448 160.024 110.104C160.63 110.383 159.308 111.236 160.786 111.744C160.957 111.941 161.797 110.416 163.135 109.235ZM170.586 114.385C170.802 113.926 170.891 113.414 170.844 112.905C170.798 112.396 170.617 111.911 170.323 111.505C170.028 111.099 169.631 110.787 169.177 110.607C168.723 110.426 168.231 110.383 167.755 110.482C165.235 111.056 162.482 114.434 163.819 117.172C164.271 118.107 163.819 120.042 162.886 120.272C161.035 120.698 160.91 119.78 160.459 120.665C160.008 121.551 161.004 122.305 162.015 122.305C165.219 122.305 166.293 118.435 165.266 116.352C165.135 116.125 165.057 115.868 165.041 115.602C165.025 115.336 165.07 115.07 165.173 114.827C165.826 113.187 169.077 110.088 169.389 114.483C169.466 114.942 170.26 115.106 170.586 114.385ZM121.491 116.238C121.491 115.647 121.149 113.925 119.842 113.893C118.287 113.893 118.054 116.336 119.174 117.533C119.842 118.271 121.118 118.435 121.491 116.238Z" fill="#FEDFBA"/>
<path d="M96.3571 238.457C100.899 241.737 100.199 238.605 98.006 254.151C96.943 260.858 95.4523 267.482 93.5413 273.977C93.1058 275.322 93.7591 270.123 93.5413 264.613C93.3235 257.135 86.0122 244.639 85.2344 244.935C83.6788 245.476 86.79 247.394 90.5857 258.48C93.1835 266.253 91.8146 276.945 89.9945 279.798C87.63 283.472 85.5766 285.03 79.6187 284.079C76.946 283.654 74.4528 282.403 72.4538 280.486C70.4547 278.569 69.0396 276.069 68.3872 273.305C67.5472 269.664 66.1782 265.466 66.8316 261.055C69.9428 237.44 68.0761 248.378 71.9651 254.02H72.6651C72.4473 252.232 72.2918 252.38 70.2073 245.164C69.5539 242.868 69.5383 242.54 68.8539 242.081C65.9138 240.146 66.4582 239.835 65.8827 236.555C65.5249 234.571 63.207 235.095 63.5026 232.308C63.5833 231.522 63.473 230.726 63.1817 229.998C62.8906 229.268 62.4282 228.63 61.8381 228.142C60.7647 227.076 61.0136 223.928 62.8803 221.878C66.2093 218.237 66.5827 216.614 69.8183 214.089C70.3317 213.679 70.4561 213.826 75.2474 212.645C76.2897 212.383 75.6519 212.121 77.8453 211.711C83.7099 210.596 85.1877 208.431 85.1255 209.808C84.9912 210.918 84.5664 211.965 83.8987 212.834C83.231 213.703 82.3468 214.359 81.3454 214.728C80.0843 215.502 78.7496 216.134 77.363 216.614C68.0294 218.844 68.5272 225.437 70.0517 223.551C72.0429 221.091 71.7473 220.582 72.494 222.026C73.054 223.108 72.774 222.616 70.9384 224.354C69.3828 225.83 64.1871 230.258 66.7071 229.864C67.0649 229.864 67.2671 229.618 70.565 226.699C72.914 224.6 73.8629 222.714 81.4543 222.632C85.8255 222.632 89.2323 220.517 92.2035 219.91C93.3391 219.664 93.0435 223.501 85.0788 225.764C83.3408 226.498 81.5378 227.048 79.6964 227.404C78.2401 227.481 76.8357 227.999 75.6519 228.897C74.5629 229.979 73.754 230.537 74.314 231.143C74.5163 231.373 74.7029 231.553 74.9985 231.225C76.8808 229.159 78.8253 229.257 82.7765 228.421C83.9588 228.175 83.7099 227.552 85.5922 227.355C87.5176 227.007 89.4235 226.546 91.3013 225.978C92.8569 225.978 91.659 229.454 83.5232 232.767C79.5875 234.407 77.7364 234.849 76.3519 237.03C75.9785 237.621 75.6674 238.506 76.3519 238.834C77.4875 239.375 76.803 236.866 80.8631 235.309C81.5632 235.046 81.7343 234.981 81.9832 238.26C82.5121 245.377 80.0231 248.493 79.8209 251.379C79.8209 251.773 80.2565 252.281 80.7231 251.675C81.4296 250.069 82.0579 248.428 82.6054 246.755C86.09 235.768 77.9386 232.193 88.8278 235.719C93.7591 237.326 94.4437 237.08 96.3571 238.457Z" fill="#FEDFBA"/>
<path d="M71.1733 205.152C73.2889 204.643 71.5311 209.464 67.6576 211.711C64.5464 213.564 64.2353 213.744 63.7997 214.302C63.3642 214.86 63.7997 215.565 64.2042 215.417C66.7554 214.63 70.9866 209.825 62.3063 220.337C60.2529 222.829 60.5641 223.01 60.2841 220.812C60.3026 219.977 60.3754 219.145 60.5018 218.32C60.8907 216.368 58.8529 211.76 61.0307 210.301C63.8491 208.494 66.8425 207.01 69.9599 205.873C70.3348 205.581 70.7423 205.339 71.1733 205.152Z" fill="#FEDFBA"/>
<path d="M109.812 83.6367C109.812 83.4071 111.057 77.0771 112.581 74.7649C114.106 72.4527 119.333 66.5655 119.333 66.5655C119.333 66.5655 123.222 68.6974 123.58 64.9257C123.58 64.9257 125.042 66.3851 126.691 63.6793C128.34 60.9736 132.649 61.2523 134.204 61.9739C135.76 62.6954 140.038 63.5154 142.402 67.697C144.767 71.8787 152.872 86.4572 154.318 88.5563C155.765 90.6553 160.354 96.7557 156.947 97.7888L150.725 94.0499C150.725 94.0499 148.563 87.3756 143.134 86.4244C137.705 85.4733 131.249 84.8994 128.604 89.7042C128.604 89.7042 123.393 86.4244 119.768 89.9174C119.768 89.9174 118.944 84.7846 114.417 83.981C109.89 83.1775 109.812 83.6367 109.812 83.6367Z" fill="#FEDFBA"/>
<path d="M5.62845 115.09L4.89731 110.449L8.39742 113.565L12.9087 111.335L11.3842 116.632L14.5887 121.551L9.23745 120.584L7.12183 125.569L5.76845 119.583L1.11719 117.255L5.62845 115.09Z" fill="#FFEAB6"/>
<path d="M229.688 113.695C222.423 119.796 221.645 131.488 217.99 128.684C213.805 125.404 211.129 121.977 211.005 117.057C211.005 115.696 210.305 114.368 209.06 114.86C208.049 115.325 207.01 115.719 205.949 116.041C202.387 117.024 202.527 113.613 200.878 115.204C200.214 115.688 199.593 116.237 199.027 116.844C198.513 117.336 198.762 117.057 197.58 116.123C196.398 115.188 194.687 116.467 194.92 117.188C195.034 117.364 195.2 117.493 195.392 117.556C195.584 117.619 195.791 117.61 195.978 117.533C196.896 117.106 197.036 118.025 197.969 118.812C199.525 120.14 200.754 115.811 202.091 116.811C204.316 118.451 205.327 117.894 208.718 116.68C210.818 115.942 206.789 120.845 215.205 128.372C219.872 132.587 220.665 131.259 224.321 123.551C225.659 120.731 228.288 116.139 230.668 114.597C231.648 113.958 232.799 113.63 235.195 115.417C240.81 119.615 238.306 120.681 237.575 122.502C237.45 122.83 238.119 123.42 238.415 122.994C240.266 120.321 239.753 121.157 240.141 119.861C239.473 115.795 233.172 110.777 229.688 113.695Z" fill="#000001"/>
<path d="M227.348 92.787C227.224 91.967 226.975 91.1469 226.82 90.3434C226.801 90.1492 226.728 89.9653 226.608 89.8161C226.489 89.6668 226.33 89.5591 226.151 89.5072C225.544 89.3104 225.466 89.6711 223.382 92.2785C221.531 94.5907 222.635 94.1971 218.093 93.0164C217.842 93.0634 217.605 93.1686 217.398 93.3247C217.19 93.4808 217.018 93.6836 216.895 93.9183C216.584 94.3939 216.615 94.5743 217.999 96.9357C219.182 98.9528 219.555 98.4608 218.995 99.3299C216.055 103.971 214.732 105.496 220.146 103.413C223.257 102.233 223.133 102.052 223.584 102.528C225.684 104.742 228.577 108.48 228.749 105.348C228.822 104.12 228.642 102.889 228.22 101.741C228.002 100.56 232.28 99.9531 232.529 98.264C232.549 98.1909 232.556 98.1138 232.548 98.0378C232.539 97.9619 232.517 97.8885 232.479 97.8223C232.443 97.7562 232.395 97.6987 232.335 97.6534C232.277 97.6081 232.211 97.5759 232.14 97.5589C226.213 95.345 228.048 97.5098 227.348 92.787ZM227.426 100.117C225.871 101.331 227.333 102.347 227.208 104.053C225.995 103.512 224.626 100.773 222.822 100.773C219.57 101.921 219.368 102.413 218.793 102.413C218.979 101.183 221.717 98.6905 220.162 97.3622C219.555 96.8703 218.046 94.5251 218.808 94.7055C221.826 95.4434 221.81 95.591 222.386 95.1646C225.419 92.9672 225.497 89.5891 226.057 94.2135C226.54 98.3788 225.56 96.6733 229.931 98.346C230.646 98.6576 228.406 99.3629 227.426 100.117Z" fill="#000001"/>
<path d="M207.94 66.1226C208.065 72.6822 211.969 75.9619 205.436 75.0764C195.418 73.6989 193.411 71.1571 194.36 78.8317C194.484 79.8648 194.531 79.5368 189.693 81.6031C187.266 82.6526 188.371 83.9481 189.693 83.4069C194.111 81.5047 196.055 81.2259 195.915 79.1925C195.604 75.6011 195.169 74.9616 196.46 75.1912C205.187 76.6671 206.665 77.0114 208.236 76.831C214.365 76.1423 206.556 65.8603 210.74 63.712C213.68 62.1705 214.66 64.6304 228.77 70.5503C229.548 70.8783 230.325 71.2063 230.574 70.4355C230.823 69.6648 230.108 69.6156 229.719 69.4516C215.718 63.4005 217.149 63.1053 214.163 62.0722C213.505 61.7479 212.782 61.6012 212.057 61.6454C211.333 61.6895 210.63 61.9231 210.013 62.325C209.396 62.7269 208.883 63.2844 208.521 63.9475C208.159 64.6104 207.96 65.3579 207.94 66.1226Z" fill="#000001"/>
<path d="M213.975 46.0345C212.809 48.0515 210.102 52.4464 212.606 51.7904C213.54 51.5609 215.329 51.2001 215.718 51.0361C218.098 50.1834 218.175 49.839 218.502 50.1998C221.613 53.4795 223.838 57.0709 223.682 51.0689C223.589 48.2483 222.998 47.7891 223.76 47.4776C224.771 47.0184 226.778 45.8377 227.338 45.6901C229.251 45.0833 229.345 43.7714 228.52 43.3779C227.696 42.9843 225.409 42.5251 223.993 41.8856C221.738 40.8197 222.702 42.2792 221.256 36.2444C221.222 36.0648 221.135 35.9013 221.007 35.7769C220.88 35.6525 220.718 35.574 220.545 35.5521C220.373 35.5302 220.198 35.5665 220.046 35.6554C219.894 35.7444 219.774 35.8817 219.7 36.0476C219.513 36.31 218.86 37.2939 216.869 40.3769C216.402 41.1148 211.937 38.6386 211.206 39.557C209.371 41.8036 214.582 44.985 213.975 46.0345ZM215.842 41.8692C217.398 42.3448 217.118 42.1152 219.949 38.0975C220.851 36.802 220.275 42.6563 222.376 42.8531C223.091 42.8531 224.118 43.7714 225.782 44.165C225.916 44.2161 226.042 44.288 226.156 44.3782C226.078 44.493 226.016 44.6406 225.907 44.6898C221.987 46.8216 221.722 46.5592 221.956 47.9695C222.547 51.856 222.407 51.2493 222.313 51.9216C218.16 47.9531 219.809 48.4615 219.202 48.3467C218.051 48.1663 215.904 49.5274 213.835 49.9866C213.12 49.9866 213.4 49.8226 215.189 46.7068C217.118 43.3451 207.504 39.3602 215.842 41.8692Z" fill="#000001"/>
<path d="M177.2 49.7902C177.13 50.4305 177.189 51.0791 177.372 51.6942C177.553 52.3094 177.856 52.8777 178.258 53.3625C178.661 53.8474 179.155 54.2381 179.71 54.5096C180.265 54.7811 180.866 54.9276 181.478 54.9394C183.75 55.1526 184.667 53.1027 185.523 53.2995C187.436 53.6931 188.961 51.4628 189.023 49.8722C189.023 49.0358 189.614 48.4783 189.925 47.6747C190.236 46.8712 189.832 46.3628 190.236 46.2316C190.831 45.8001 191.311 45.2144 191.63 44.5309C191.949 43.8475 192.095 43.0892 192.056 42.3287C192.056 42.1155 192.585 41.3612 192.056 40.6889C191.948 40.5413 192.476 39.6557 192.601 39.5245C192.725 39.3934 207.535 40.6397 210.133 26.8811C213.928 6.77619 183.298 -1.35759 177.589 17.9602C174.478 28.357 182.567 33.867 182.085 34.9329C180.825 37.6715 180.016 36.5728 179.549 37.7699C178.305 40.8036 179.549 40.4265 178.88 40.8036C176.64 42.0172 177.885 43.5094 177.107 44.0834C176.5 44.5535 176.088 45.2524 175.959 46.0344C175.828 46.8164 175.988 47.6214 176.407 48.2815C177.014 49.0358 177.325 49.1998 177.2 49.7902ZM181.587 53.2503C179.783 52.7911 179.565 52.7584 178.476 50.4297C178.336 50.1345 178.678 50.1837 178.974 50.3149C183.267 52.1844 184.465 52.4796 181.587 53.2503ZM180.872 30.62C173.389 18.1077 183.983 8.05529 192.181 8.53086C211.455 8.41607 215.608 35.1461 195.572 37.5567C192.959 37.8847 192.461 37.0975 191.652 38.1962C190.19 40.3773 191.139 41.3612 189.941 41.0332C187.495 40.3747 185.164 39.3119 183.034 37.8847C181.058 36.622 184.59 36.2448 183.563 33.8998C182.536 31.5547 182.552 33.3422 180.872 30.62ZM180.949 38.0978C189.194 44.6574 192.461 41.2792 189.972 44.3294C189.505 44.9033 187.701 43.9358 187.016 43.6734C183.75 42.3779 178.196 40.5085 181.012 38.0978H180.949ZM179.052 42.3287C179.3 42.1319 179.176 41.5744 179.534 41.6072C180.156 41.6072 179.332 42.2959 183.454 44.0342C187.576 45.7725 187.934 45.9693 188.743 46.0513C189.552 46.1332 188.65 47.9371 187.094 47.9043C184.574 46.986 177.045 44.067 179.114 42.3287H179.052ZM177.496 45.6085C178.18 44.4934 177.62 45.7725 181.167 47.3796C185.01 49.1342 186.394 49.7902 187.39 49.659C187.654 49.659 187.639 49.8558 187.53 50.0034C186.892 50.9053 186.161 52.2336 184.963 51.4301C181.929 49.1998 175.925 48.2815 177.589 45.5429L177.496 45.6085Z" fill="#000001"/>
<path d="M207.955 148.182C206.741 147.362 207.208 147.264 207.472 146.05C208.546 141.131 208.499 141.475 208.437 141.131C208.429 140.993 208.385 140.859 208.31 140.744C208.235 140.629 208.131 140.54 208.01 140.484C207.89 140.428 207.758 140.408 207.627 140.427C207.496 140.446 207.373 140.502 207.27 140.59C205.715 141.885 203.941 142.656 202.354 143.869C201.623 144.394 199.165 141.77 198.605 142C197.781 142.361 197.174 142.787 197.439 143.853C198.543 148.067 198.201 147.625 197.625 148.018C195.93 149.166 194.514 149.658 194.623 151.118C194.623 152.298 198.014 152.216 199.29 152.233C200.565 152.249 200.301 152.823 200.737 153.577C202.681 156.956 203.848 158.907 204.812 155.07C205.652 151.888 204.61 152.233 209.775 152.052C211.984 151.872 210.319 149.773 207.955 148.182ZM206.85 150.56C205.03 150.806 204.268 150.855 204.066 152.019C203.9 152.968 203.644 153.896 203.303 154.791C203.223 154.728 203.15 154.657 203.086 154.578C199.974 149.756 202.386 151.003 196.676 150.511C195.541 150.511 198.668 149.396 199.585 147.231C199.928 146.427 198.325 143.427 199.228 143.951C201.966 145.476 201.079 144.919 201.421 145.132C202.448 145.804 205.497 143.164 206.663 142.803C207.083 145.509 204.128 147.149 206.912 149.215C208.872 150.642 208.608 150.33 206.85 150.56Z" fill="#000001"/>
<path d="M190.612 170.371C186.194 167.911 182.632 169.748 177.187 166.501C175.624 165.346 173.722 164.812 171.82 164.992C170.498 165.353 159.018 160.072 156.544 154.333C156.02 152.836 155.747 151.254 155.735 149.659C155.626 148.413 161.444 153.759 167.076 150.84C167.222 150.787 167.35 150.689 167.445 150.561C167.541 150.433 167.599 150.278 167.614 150.117C167.628 149.954 167.599 149.79 167.528 149.645C167.458 149.501 167.349 149.38 167.216 149.298C165.176 148.396 163.458 146.841 162.3 144.854C162.113 144.526 161.895 143.87 162.611 144.379C168.942 148.921 177.249 144.067 174.714 142.739C172.459 142.136 170.458 140.764 169.02 138.836C168.709 138.426 169.02 138.492 169.207 138.606C173.874 140.804 180.438 140.492 184.141 136.737C186.07 134.769 179.878 133.933 178.525 126.258C177.171 118.583 181.636 113.549 182.414 100.446C182.818 93.6245 177.996 80.981 174.947 76.2582C166.656 63.4344 154.724 57.17 139.837 52.7096C136.313 51.8545 132.64 51.9616 129.165 53.0211C128.543 53.2835 128.683 54.3658 129.43 54.251C134.803 53.0005 140.42 53.7298 145.344 56.3173C151.411 59.3347 163.404 62.188 172.505 75.6842C192.479 105.202 167.838 119.961 180.174 133.441C182.772 136.278 183.145 135.819 181.916 136.589C179.712 137.889 177.208 138.509 174.686 138.382C172.164 138.255 169.727 137.383 167.651 135.868C166.687 135.212 165.691 135.868 166.204 137.098C168.367 142.608 173.625 143.329 172.271 143.821C165.116 146.363 162.222 141.739 161.211 141.148C159.064 139.935 158.675 144.854 164.587 149.594C165.816 150.577 155.486 149.741 155.58 146.183C156.435 116.206 153.697 129.357 161.958 128.144C168.818 127.111 176.736 116.862 174.838 109.63C173.562 104.825 169.347 105.382 168.289 104.579C158.038 96.8223 152.593 94.428 149.622 89.5084C146.106 83.7032 132.992 81.7026 128.372 88.5409C128.201 88.8033 128.061 88.8689 127.828 88.5409C127.401 88.0005 126.872 87.5583 126.277 87.2414C125.681 86.9244 125.03 86.7395 124.364 86.6979C123.698 86.6565 123.031 86.7593 122.404 87.0001C121.778 87.241 121.203 87.6146 120.719 88.0981C120.516 88.3277 120.423 88.3277 120.345 87.9997C119.536 84.4904 115.009 82.8341 111.292 82.6209C110.716 82.6209 110.607 82.8341 112.1 78.7508C112.381 77.9965 113.998 77.8325 116.394 79.6363C118.556 81.0466 117.047 75.7662 113.609 75.8482C112.054 75.8482 118.152 68.8132 119.101 67.6488C119.599 67.0585 119.739 68.0752 120.967 68.19C121.481 68.19 121.807 67.3373 121.185 66.8289C113.205 60.2694 121.667 46.7896 129.197 51.1353C130.752 52.07 131.514 50.3317 130.006 49.4954C124.685 46.7568 118.665 50.4957 116.985 56.6289C116.767 57.3832 116.721 56.5141 113.096 57.3996C111.473 57.8037 109.98 58.6538 108.77 59.8637C107.559 61.0735 106.674 62.5998 106.205 64.2871C105.995 65.0613 105.585 65.7593 105.022 66.3041C101.445 70.371 103.156 75.553 107.231 76.8486C107.527 76.9469 108.694 77.0945 108.787 76.5206C109.036 75.5695 108.305 75.5531 107.729 75.3727C102.285 73.6508 105.474 65.927 106.08 68.6656C106.687 71.4042 110.203 74.8479 110.965 73.4376C111.727 72.0273 105.427 70.3218 107.76 64.1723C109.596 59.2527 116.55 57.6128 116.534 59.5314C116.441 65.599 118.992 66.091 118.37 66.7797C115.258 70.2071 113.703 71.4206 111.789 75.6842C111.652 76.0521 111.391 76.3551 111.058 76.537C108.709 77.6849 107.838 81.4566 108.74 80.8991C110.669 79.538 110.047 79.6199 109.565 82.1618C109.332 83.3589 107.776 82.2602 103.856 84.4904C96.8711 88.5573 100.262 98.2162 106.205 102.496C108.46 104.136 101.756 106.416 108.414 123.257C108.445 123.311 108.463 123.373 108.467 123.436C108.471 123.5 108.46 123.563 108.436 123.621C108.411 123.679 108.374 123.73 108.327 123.769C108.28 123.809 108.224 123.835 108.165 123.847C105.719 125.008 103.07 125.623 100.387 125.651C99.4534 125.553 99.4845 126.635 99.7645 127.422C102.082 133.982 108.507 134.589 107.294 135.343C102.394 138.426 102.502 137.852 101.196 138.18C100.955 138.205 100.733 138.329 100.579 138.526C100.424 138.722 100.35 138.975 100.371 139.229C100.262 140.558 101.242 141.312 102.611 142.345C108.46 146.74 114.216 143.985 114.512 144.28C114.051 145.934 113.309 147.484 112.318 148.856C110.172 151.725 116.285 152.135 121.372 148.757C121.464 148.733 121.56 148.733 121.652 148.757C121.478 149.949 121.228 151.127 120.905 152.283C120.159 154.89 118.276 153.923 117.561 156.629C116.923 159.138 104.851 162.647 103.28 163.696C102.767 164.024 103.14 164.27 98.4423 154.152C91.7845 139.869 92.2201 139.885 90.5089 140.492C86.5266 141.837 87.9111 142.542 85.4221 137.212C84.1465 134.474 55.0411 142.476 46.112 153.677C44.2297 156.137 45.3653 156.743 46.0031 156.137C46.3608 155.809 48.8498 150.627 62.8503 144.248C69.4918 141.214 76.5027 139.171 83.6798 138.18C84.4887 138.082 84.1621 137.836 85.7643 141.575C86.1688 142.526 47.2787 155.169 46.3142 156.465C45.3497 157.76 43.203 157.35 43.8563 156.825C44.0009 156.722 44.1022 156.564 44.1398 156.384C44.1774 156.204 44.1484 156.016 44.0586 155.858C40.9473 148.265 37.4006 147.658 37.8361 146.019C37.8361 145.707 36.4672 142.312 36.7161 141.82C36.965 141.329 44.3074 148.216 44.0586 152.758C44.0586 153.906 45.8008 154.398 45.5208 152.299C44.7275 146.15 36.965 137.786 34.9116 140.443C34.5538 140.886 36.0627 144.116 36.0938 145.084C35.0983 144.772 29.6381 140.164 27.9114 142.444C27.5225 142.936 27.7091 143.001 30.1359 147.724C30.7426 148.921 29.0003 147.576 27.2736 146.494C22.0934 143.214 24.1623 146.379 26.9158 152.529C57.5768 219.092 60.0191 223.044 59.7079 224.88C59.5499 225.861 59.6344 226.869 59.9532 227.805C60.2721 228.741 60.8145 229.576 61.528 230.226C61.7693 230.489 61.9431 230.811 62.0328 231.165C62.1226 231.518 62.1256 231.889 62.0414 232.243C61.8702 236.294 64.6237 235.638 64.5925 237.901C64.6091 239.438 65.1629 240.916 66.1482 242.05C68.5127 243.87 67.5015 240.312 65.4015 260.646C64.8103 266.336 66.4904 270.977 67.4082 274.503C69.3527 281.85 76.7418 285.884 81.8753 285.982C82.4042 285.982 82.622 285.785 81.8753 288.229C79.4953 296.084 82.5131 297.707 78.9352 302.528C78.3025 303.497 77.9363 304.633 77.8774 305.808C77.8974 305.965 77.9679 306.11 78.0772 306.218C78.1863 306.326 78.3276 306.392 78.4774 306.404C78.627 306.415 78.7758 306.373 78.8989 306.281C79.022 306.191 79.1117 306.058 79.153 305.907C79.8997 302.971 82.2642 301.692 82.3576 297.592C82.3576 296.871 82.4509 292.345 82.6065 291.656C83.991 285.343 83.6954 285.999 84.4887 285.867C89.5445 285.015 90.6178 282.03 93.4646 277.963C95.4555 275.11 99.6868 256.087 101.009 242.689C101.009 242.165 101.009 241.623 101.46 241.263C101.911 240.902 104.151 226.258 104.105 224.864C104.105 224.323 103.202 224.11 103.016 224.602C102.502 225.897 101.725 233.932 100.745 239.262C100.636 239.918 100.387 239.508 98.0534 237.77C94.9422 235.441 94.491 235.999 90.6178 234.834C84.3954 232.916 85.951 233.883 89.42 231.555C94.0868 228.373 93.7757 225.405 93.2468 224.7C92.7179 223.995 91.0378 224.405 93.2468 223.732C113.827 217.452 121.714 215.09 124.53 213.893C126.474 213.106 126.085 212.876 125.619 212.352C125.619 212.352 122.663 206.022 103.84 165.632C103.56 165.008 103.389 165.238 107.123 163.992C107.371 163.992 107.449 163.992 107.496 164.27C108.424 168.559 110.599 172.434 113.718 175.356C122.072 182.752 125.136 180.177 125.774 181.309C131.079 190.836 128.372 168.501 127.33 237.294C127.33 263.45 129.523 261.892 132.479 269.551C132.712 270.125 134.035 276.11 134.952 277.176C144.053 288.54 151.333 288.344 159.329 281.472C166.033 275.716 177.28 257.104 178.152 257.809C179.023 258.514 180.454 258.58 181.823 259.564C183.674 260.892 186.567 262.188 188.699 261.532C190.456 260.99 189.99 262.269 199.121 233.982C199.603 232.473 198.701 246.281 195.652 258.859C191.452 276.143 184.763 286.015 186.318 292.607C186.941 295.165 185.867 296.084 186.318 300.282C187.874 312.417 187.112 311.646 188.356 311.761C189.601 311.876 188.216 302.332 188.107 301.774C187.158 296.674 188.387 295.215 187.75 292.394C186.101 285.195 195.17 273.617 199.199 248.331C200.972 237.261 199.619 232.948 203.212 222.24C207.692 208.99 210.586 199.659 208.486 185.687C206.93 175.471 203.928 177.783 190.612 170.371ZM44.9141 158.892C49.7676 158.892 42.2229 147.576 68.8238 203.873C69.2905 204.874 67.5793 205.431 66.5837 205.628C65.9926 205.218 67.2993 207.498 53.05 177.242C43.9808 158.104 43.9808 158.875 44.9141 158.875V158.892ZM29.5447 143.657C31.6137 143.395 40.434 149.741 42.5652 156.071C38.9409 154.17 35.4615 151.978 32.1582 149.512C31.8626 148.183 29.8092 144.608 29.5447 143.641V143.657ZM58.9924 218.501C58.479 217.714 26.3246 148.282 26.1069 147.708C26.3558 147.609 25.5157 147.166 39.1428 155.743C43.5141 158.498 40.9784 155.005 48.3676 170.814C65.697 207.875 65.3703 206.169 64.6237 206.448C55.3056 209.81 59.9413 216.255 58.9924 218.485V218.501ZM60.2835 220.863C60.3021 220.028 60.3749 219.194 60.5013 218.37C60.8902 216.419 58.8524 211.81 61.0302 210.351C63.8486 208.544 66.8419 207.06 69.9594 205.923C70.3326 205.62 70.7402 205.366 71.1728 205.169C73.2884 204.677 71.5306 209.482 67.6571 211.728C64.5459 213.582 64.2348 213.762 63.7992 214.319C63.3636 214.877 63.7992 215.582 64.2036 215.435C66.7548 214.647 70.9861 209.843 62.3058 220.354C60.2524 222.863 60.5635 223.027 60.2835 220.846V220.863ZM72.1995 211.023C72.4639 211.712 72.3706 211.597 69.9438 212.106C69.9438 212.106 69.9438 212.106 69.9438 211.974C71.2972 211.105 71.4994 210.121 71.7639 210.187C72.0283 210.253 71.9817 210.515 72.1995 211.073V211.023ZM85.0177 225.684C83.2798 226.418 81.4767 226.967 79.6353 227.324C78.179 227.4 76.7746 227.918 75.5907 228.816C74.5018 229.898 73.6928 230.456 74.2529 231.063C74.4551 231.292 74.6418 231.473 74.9373 231.145C76.8196 229.078 78.7641 229.177 82.7154 228.34C83.8976 228.094 83.6487 227.471 85.531 227.275C87.4566 226.926 89.3625 226.465 91.2401 225.897C92.7957 225.897 91.5979 229.374 83.4621 232.686C79.5108 234.326 77.6752 234.769 76.2907 236.95C75.9174 237.54 75.6062 238.426 76.2907 238.754C77.4263 239.295 76.7418 236.786 80.802 235.228C81.502 234.966 81.6731 234.9 81.922 238.18C82.4509 245.297 79.9619 248.413 79.7597 251.299C79.7597 251.692 80.1953 252.201 80.662 251.594C81.1286 250.987 82.3887 247.101 82.5442 246.674C86.0288 235.687 77.8774 232.112 88.7667 235.638C93.7602 237.278 94.3821 236.999 96.2955 238.376C100.838 241.656 100.138 238.524 97.9445 254.07C96.8815 260.777 95.3907 267.401 93.4802 273.896C93.0446 275.241 93.6979 270.042 93.4802 264.533C93.2624 257.055 85.951 244.559 85.1732 244.854C83.6176 245.395 86.7288 247.314 90.5245 258.399C93.1224 266.172 91.7534 276.864 89.9334 279.718C87.5688 283.391 85.5154 284.949 79.5575 283.998C76.8849 283.573 74.3916 282.324 72.3926 280.405C70.3935 278.488 68.9785 275.988 68.326 273.224C67.486 269.583 66.117 265.385 66.7704 260.974C69.8816 237.36 68.0149 248.298 71.9039 253.939H72.6039C72.3861 252.151 72.2306 252.299 70.1461 245.084C69.4927 242.788 69.4772 242.46 68.7927 242.001C65.8526 240.066 66.3971 239.754 65.8215 236.474C65.4637 234.49 63.1458 235.015 63.4414 232.227C63.5223 231.441 63.4118 230.646 63.1207 229.917C62.8294 229.189 62.367 228.55 61.7769 228.062C60.7035 226.996 60.9524 223.847 62.8192 221.797C66.1482 218.157 66.5215 216.533 69.7572 214.008C70.2705 213.598 70.395 213.746 75.1862 212.565C76.2285 212.302 75.5907 212.04 77.7841 211.63C83.6487 210.515 85.1265 208.35 85.0643 209.728C84.93 210.837 84.5052 211.886 83.8375 212.753C83.1699 213.623 82.2856 214.278 81.2842 214.647C80.0233 215.422 78.6884 216.054 77.3019 216.533C67.9682 218.764 68.466 225.356 69.9905 223.47C71.9817 221.01 71.6861 220.502 72.4328 221.945C72.9928 223.027 72.7128 222.535 70.8772 224.274C69.3216 225.749 64.1259 230.177 66.646 229.784C67.0037 229.784 67.206 229.538 70.5039 226.619C72.8528 224.52 73.8017 222.634 81.3931 222.552C85.7643 222.552 89.1711 220.436 92.1423 219.829C93.2779 219.633 92.9824 223.47 85.0177 225.733V225.684ZM74.284 222.043C74.0817 221.846 74.1751 222.158 73.2884 220.256C73.0862 219.797 73.4284 219.665 75.6062 218.96C75.8862 218.862 76.1351 219.403 76.7729 220.895C76.913 221.289 76.6485 221.387 74.284 222.092V222.043ZM123.472 212.598C122.227 213.008 94.3044 221.732 94.2579 221.748C93.9313 221.847 93.6668 221.879 93.8224 221.551C94.491 220.043 93.8224 217.829 92.0646 218.272C86.2466 219.567 87.2422 220.977 78.8419 220.994C78.2041 220.994 78.4841 221.191 77.2863 218.698C77.1619 218.436 77.2863 218.272 77.5041 218.206C79.1748 217.68 80.7745 216.931 82.2642 215.976C87.7711 213.139 87.7089 205.776 83.3532 208.121C81.3314 209.094 79.1894 209.762 76.9907 210.105C76.013 210.427 75.0524 210.806 74.1129 211.236C73.6773 211.4 72.9928 209.597 72.7906 209.055C72.5884 208.514 74.8129 203.168 71.6239 203.25C68.9016 204.021 72.4795 206.792 48.6787 157.744C48.0565 156.465 47.4187 157.153 57.5768 153.611C61.6991 152.185 86.1844 143.641 90.7889 141.886C91.2245 141.722 90.789 141.033 96.1711 152.627C124.188 213.664 124.623 212.27 123.472 212.647V212.598ZM158.053 100.545C158.053 99.8888 157.742 99.8888 165.364 105.104C166.36 105.776 164.042 105.497 161.678 108.383C161.227 108.941 161.211 108.908 160.558 108.58C157.726 107.252 157.649 104.005 158.053 100.594V100.545ZM130.597 88.5573C133.708 85.8679 143.819 85.9335 147.708 90.5743C151.1 94.6412 142.699 109.515 134.408 103.398C130.426 100.463 126.723 91.837 130.597 88.5573ZM110.498 96.0023C110.498 95.1824 109.627 84.9823 110.887 85.0479C113.253 84.9593 115.592 85.6096 117.607 86.9174C120.952 89.2296 117.156 105.202 109.005 102.037C108.134 101.676 110.436 99.5281 110.498 96.0023ZM106.205 85.8515C107.014 85.5891 107.76 85.3923 108.663 85.1627C108.943 85.1627 109.083 85.1627 109.052 85.4907C108.243 92.8866 110.514 94.9856 107.823 100.66C107.511 101.348 107.449 101.381 106.92 100.938C100.402 95.33 98.5823 88.3605 106.205 85.8515ZM109.083 103.89C110.497 104.22 111.971 104.134 113.341 103.643C114.713 103.151 115.93 102.273 116.861 101.102C117.747 100.151 116.861 103.775 121.216 104.612C122.119 104.792 122.461 103.628 121.916 103.349C120.594 102.644 119.35 102.316 118.634 99.9708C118.074 98.1506 123.456 99.6101 123.301 95.3464C123.301 94.2149 122.259 94.1821 122.025 95.1988C121.605 96.9534 122.025 96.6911 119.536 97.183C119.319 97.183 119.256 97.183 119.334 96.9043C120.703 92.3618 120.267 91.0663 121.667 89.9676C122.274 89.594 122.965 89.3988 123.666 89.4028C124.369 89.4067 125.057 89.6095 125.66 89.99C126.263 90.3704 126.757 90.9146 127.093 91.5655C127.427 92.2164 127.59 92.9502 127.563 93.6901C127.765 99.0525 132.697 106.908 138.452 106.678C146.604 106.334 148.953 97.4782 150.431 96.5107C151.411 95.8547 152.437 96.2647 156.575 98.9377C157.789 99.7084 154.257 107.481 160.013 110.138C160.62 110.417 159.298 111.27 160.775 111.778C161.009 111.778 161.849 110.318 163.187 109.138C169.751 103.283 177.514 108.039 170.965 119.092C169.658 121.273 168.351 123.159 162.642 125.651C155.222 128.931 154.335 108.908 154.195 145.33C154.195 155.661 155.253 158.76 169.02 165.796C169.565 166.074 164.789 169.83 164.758 169.846C156.466 176.11 161.335 173.126 152.157 177.012C150.602 177.635 144.177 180.44 144.068 179.406C142.824 168.436 140.335 165.927 138.624 159.498C137.068 153.824 135.326 152.381 135.17 150.479C134.952 147.691 128.948 142.28 128.217 141.296C127.952 140.968 127.983 140.837 128.372 140.689C145.904 134.671 143.244 130.095 141.47 131.194C137.861 133.408 121.699 139.508 114.169 130.407C105.816 120.6 105.629 102.841 109.052 103.956L109.083 103.89ZM113.983 149.233C115.078 147.19 115.856 144.976 116.285 142.673C116.325 142.507 116.314 142.33 116.254 142.17C116.193 142.01 116.087 141.875 115.949 141.782C115.812 141.689 115.65 141.646 115.487 141.655C115.323 141.665 115.168 141.729 115.041 141.837C109.643 145.674 100.122 139.656 102.378 139.475C103.731 139.361 112.816 134.949 108.429 133.408C103.249 131.588 100.9 127.357 101.522 127.16C103.953 126.99 106.337 126.38 108.569 125.356C110.623 124.323 108.569 129.456 118.136 135.671C117.702 136.182 117.461 136.845 117.461 137.532C117.461 138.22 117.702 138.882 118.136 139.393C120.812 142.837 122.803 144.313 122.663 144.641C122.43 145.166 122.663 145.887 122.056 146.281C119.739 147.937 116.658 149.807 113.983 149.233ZM124.219 179.029C117.172 177.865 110.296 170.518 108.88 164.352C108.616 163.188 108.429 163.303 109.612 162.877C113.081 161.581 114.869 160.187 114.434 161.007C113.563 162.647 114.185 164.762 114.076 165.517C113.672 168.354 115.538 170.748 118.23 172.257C118.587 172.453 118.463 172.421 120.843 172.585C122.399 172.191 122.601 172.027 122.788 172.585C123.128 173.403 123.394 174.255 123.581 175.126C124.203 178.751 125.012 179.226 124.203 179.095L124.219 179.029ZM169.751 266.123C168.35 268.122 166.833 270.029 165.209 271.83C163.015 274.503 161.258 277.488 157.789 280.292C149.668 286.851 143.586 285.211 136.508 276.471C135.437 274.549 134.675 272.456 134.252 270.272C133.241 265.959 131.437 264.762 130.177 259.875C126.879 247.101 130.472 185.376 130.799 185.064C132.137 183.769 130.052 184.408 127.05 180.276C124.608 176.996 125.743 173.487 120.827 165.058C120.73 164.829 120.584 164.628 120.4 164.469C120.217 164.31 120.002 164.197 119.77 164.139C118.821 163.975 119.599 165.271 120.034 166.287C120.687 167.78 119.35 166.829 119.101 166.812C118.463 166.73 118.027 167.501 120.205 168.846C120.47 169.01 121.185 169.026 121.372 169.288C121.555 169.655 121.686 170.047 121.761 170.453C121.761 170.682 121.761 170.748 121.559 170.764C119.847 170.978 119.101 171.355 117.685 170.092C116.876 169.37 115.429 167.731 115.461 166.615C115.538 163.336 115.009 161.696 117.685 160.056C118.727 159.449 118.914 158.416 118.976 157.203C119.085 154.972 121.216 156.186 122.087 153.283C123.332 149.151 129.025 152.791 128.201 150.479C125.681 143.51 117.778 139 118.867 136.999C119.894 135.245 123.628 138.508 124.608 139.689C127.625 143.28 133.163 148.167 133.661 151.578C133.972 153.611 135.326 154.333 136.679 159.121C139.121 167.714 141.89 171.371 142.217 180.866C142.73 195.625 157.182 252.266 157.198 252.315C157.602 253.201 158.566 252.84 158.52 251.905C157.96 240.902 152.142 228.767 153.573 228.685C155.932 228.513 158.294 228.999 160.418 230.095C161.849 231.227 170.685 239.508 171.462 240.279C174.683 243.394 178.276 244.477 180.594 248.216C182.243 250.79 182.678 246.953 169.736 266.189L169.751 266.123ZM123.083 149.462C123.799 145.592 123.721 145.74 124.156 146.183C124.937 147.084 125.572 148.115 126.039 149.233C126.365 149.872 125.37 149.643 125.354 149.577C123.13 150.003 122.865 150.2 122.99 149.528L123.083 149.462ZM189.85 257.071C189.785 257.208 189.695 257.331 189.585 257.432C189.5 257.342 189.422 257.242 189.352 257.137C185.121 250.577 182.989 248.937 181.994 247.068C180.734 244.723 177.094 242.296 174.9 240.885C173.454 239.951 170.638 236.901 168.413 235.048C163.389 230.866 163.264 228.226 156.093 227.193C155.004 227.029 153.34 227.537 153.075 227.307C152.811 227.078 153.075 226.684 154.335 224.126C155.392 221.816 156.658 219.619 158.115 217.566C164.556 207.99 163.249 208.482 165.442 204.529C169.3 197.511 170.311 198.363 176.487 191.41C184.95 181.866 185.37 181.653 185.93 180.144C186.178 179.439 185.587 179.111 185.276 179.456C165.924 201.004 167.776 196.674 163.809 204.48C155.02 221.797 160.153 209.744 152.655 223.995C151.862 225.487 143.322 184.343 144.146 181.588C144.379 180.8 145.25 182.063 151.924 179.079C162.02 174.536 156.7 178.226 165.147 171.666C169.425 168.387 171.369 164.73 175.709 167.468C181.309 171.01 183.332 169.551 188.59 171.191C191.374 172.06 191.094 173.027 202.777 177.996C206.199 179.456 206.681 182.637 207.086 185.769C209.093 202.283 207.692 204.283 189.756 257.137L189.85 257.071Z" fill="#000001"/>
<path d="M185.898 23.5028C186.178 23.5028 186.38 23.5028 186.287 24.0112C185.696 26.6842 189.134 28.9308 188.449 30.2263C187.518 32.1011 186.864 34.1136 186.505 36.1954C186.427 36.6874 186.847 36.425 187.018 36.5726C187.671 37.163 187.982 34.08 189.663 30.7511C190.798 28.5372 187.5 26.3234 187.578 24.4211C187.671 21.9777 188.574 23.3716 190.689 24.0768C191.872 24.4703 192.774 24.0768 193.1 24.8967C193.312 25.3348 193.664 25.6785 194.096 25.865C194.528 26.0517 195.007 26.0688 195.449 25.9134C196.881 25.5198 196.507 26.6842 198.187 27.0613C199.867 27.4385 199.852 27.3565 199.852 28.0125C199.852 28.242 199.852 28.488 199.587 28.5536C198.787 28.8413 198.025 29.2324 197.316 29.7179C196.429 30.1607 196.818 29.4064 195.34 30.4231C193.116 31.9482 193.489 30.9806 192.556 31.7514C191 33.0797 187.594 36.8678 188.683 37.7697C189.771 38.6717 189.896 36.3102 192.105 34.1784C194.314 32.0466 193.972 33.0797 194.718 32.5385C196.274 31.5218 196.492 31.3742 196.725 31.3578C198.063 31.243 199.09 30.0623 200.101 29.9639C201.47 29.8327 201.112 28.57 201.407 28.6684C201.703 28.7668 201.703 29.0784 201.812 29.3572C202.792 31.9318 205.841 25.8642 203.492 25.0607C201.143 24.2571 200.521 25.9954 200.147 25.897C196.538 25.0443 198.778 25.5362 196.694 24.4047C195.729 23.88 194.967 25.1099 194.189 23.9456C192.96 22.0761 193.847 23.9456 188.076 21.5185C187.671 21.3546 187.454 20.7642 187.142 20.3706C186.831 19.9771 186.349 19.9771 185.774 19.8131C184.14 19.4031 183.176 22.9616 185.898 23.5028ZM202.823 26.4382C203.305 26.5858 202.947 27.7829 202.512 27.5369C200.863 26.6514 202.247 26.2414 202.823 26.4382ZM185.711 21.0922C185.898 21.0922 186.225 21.6661 186.396 21.9449C185.54 22.6829 185.136 21.3218 185.696 21.0922H185.711Z" fill="#000001"/>
<path d="M196.753 200.166C191.588 202.953 184.697 208.021 168.752 209.054C168.145 209.054 167.538 209.349 167.616 210.005C167.694 210.661 180.917 211.399 197.173 201.51C199.319 200.182 198.168 199.411 196.753 200.166Z" fill="#000001"/>
<path d="M171.181 204.644C179.503 201.905 190.206 193.164 189.522 192.213C188.168 190.393 184.746 197.707 170.73 203.479C170.232 203.676 170.45 204.48 171.181 204.644Z" fill="#000001"/>
<path d="M165.312 93.0335C165.576 93.3286 171.721 99.1994 172.39 97.3791C172.639 96.6904 172.234 96.4936 170.087 94.9193C158.903 86.9167 154.158 70.7147 148.838 67.2382C148.48 67.0086 148.185 67.9105 148.325 68.1893C149.547 69.6097 150.655 71.1345 151.638 72.7482C158.156 83.7354 156.538 83.0138 165.312 93.0335Z" fill="#000001"/>
<path d="M166.114 176.207C162.583 178.421 162.505 179.487 160.669 180.323C159.456 180.881 149.78 184.866 150.604 186.358C151.056 187.129 150.978 186.506 161.494 181.57C162.99 180.588 164.414 179.492 165.756 178.29C171.076 174.239 171.823 174.305 171.558 173.37C171.092 171.878 168.198 174.912 166.114 176.207Z" fill="#000001"/>
<path d="M162.065 122.24C165.27 122.24 166.343 118.37 165.316 116.287C165.186 116.06 165.108 115.803 165.091 115.537C165.075 115.271 165.121 115.005 165.223 114.762C165.877 113.122 169.128 110.023 169.439 114.418C169.439 114.942 170.248 115.106 170.59 114.418C170.806 113.96 170.896 113.447 170.849 112.938C170.803 112.429 170.621 111.944 170.327 111.538C170.033 111.132 169.636 110.821 169.182 110.64C168.728 110.459 168.236 110.416 167.759 110.515C165.239 111.089 162.485 114.467 163.823 117.206C164.274 118.14 163.823 120.075 162.89 120.305C161.039 120.731 160.914 119.813 160.463 120.698C160.012 121.584 161.007 122.24 162.065 122.24Z" fill="#000001"/>
<path d="M151.316 47.5591C151.41 46.444 151.099 43.3118 153.728 42.5575C155.843 41.9343 157.01 42.1475 157.959 40.4092C158.768 38.9333 157.959 38.4742 158.721 36.9491C161.272 32.0294 159.966 32.7838 163.388 31.2095C172.535 26.9294 164.943 21.4686 164.135 24.2236C163.715 25.5519 164.523 26.3063 165.068 25.0272C165.348 24.3548 168.319 26.7818 164.819 28.7989C161.583 30.652 160.012 30.6356 159.141 32.9806C158.27 35.3256 156.87 36.8179 156.917 38.9825C156.917 40.524 155.563 40.4748 153.992 40.8028C152.749 41.1616 151.66 41.9605 150.909 43.0654C150.159 44.1703 149.792 45.5138 149.87 46.8703C149.901 49.8221 151.114 50.1173 151.316 47.5591Z" fill="#000001"/>
<path d="M131.715 60.793C130.709 60.7684 129.709 60.969 128.782 61.3817C127.854 61.7944 127.019 62.4098 126.333 63.1873C125.415 64.2204 126.333 65.1551 127.266 64.3188C127.962 63.5617 128.826 63 129.78 62.6849C130.733 62.3698 131.746 62.3114 132.726 62.5149C144.362 64.1548 145.171 79.2908 157.072 94.2465C158.487 96.0012 159.592 95.3616 159.047 94.3285C156.851 91.4697 154.82 88.4743 152.965 85.3584C143.149 66.795 142.2 62.4329 131.715 60.793Z" fill="#000001"/>
<path d="M132.644 76.0115C132.099 76.6182 131.695 77.9302 132.504 77.6514C133.624 77.1758 134.682 75.7819 137.497 75.8147C141.402 75.8147 142.818 81.8495 143.082 78.7829C142.755 73.9124 137.093 70.9771 132.644 76.0115Z" fill="#000001"/>
<path d="M135.338 95.3121C136.178 95.3121 136.225 94.7217 136.442 93.8198C136.194 92.0815 134.887 92.1799 134.576 93.1802C134.265 94.1806 134.42 95.2629 135.338 95.3121Z" fill="#000001"/>
<path d="M122.735 62.9747C122.735 64.0734 122.735 66.074 123.808 65.8937C125.224 65.6641 122.89 62.8763 125.053 59.3341C125.293 58.8431 125.635 58.4147 126.051 58.0801C126.468 57.7454 126.951 57.5128 127.464 57.3991C127.644 57.3217 127.801 57.1964 127.922 57.0353C128.041 56.8743 128.12 56.6833 128.148 56.4808C128.071 54.3161 122.673 56.6939 122.735 62.9747Z" fill="#000001"/>
<path d="M112.429 2.23349C112.895 2.36468 113.564 1.65953 114.311 1.52834C115.431 1.33155 118.402 1.23316 118.978 2.43027C120.829 6.18559 114.56 10.8756 113.798 16.0577C113.315 19.3374 116.582 20.1901 121.576 21.6496C125.885 22.8959 117.858 28.6847 120.316 32.1776C120.72 32.7352 121.871 33.8175 122.804 34.8506C125.153 37.4417 122.104 40.9018 123.645 41.2462C125.185 41.5905 126.32 36.1789 123.645 33.4403C120.673 30.2918 120.362 31.3905 123.52 25.5689C124.345 24.0439 124.796 21.3709 122.991 20.5509C121.187 19.731 121.436 20.3377 117.111 18.5667C110.515 15.8937 123.053 7.95666 120.082 1.77432C119.398 0.00325346 117.951 0.200039 115.975 0.00325366C111.993 -0.095139 111.853 2.0695 112.429 2.23349Z" fill="#000001"/>
<path d="M121.5 116.238C121.5 115.647 121.157 113.925 119.851 113.893C118.295 113.893 118.062 116.336 119.182 117.533C119.851 118.271 121.126 118.435 121.5 116.238Z" fill="#000001"/>
<path d="M115.811 92.542C115.686 90.9021 114.457 90.9021 114.255 91.5253C113.275 93.3783 115.313 95.1166 115.811 92.542Z" fill="#000001"/>
<path d="M89.0889 149.625C53.6367 162.072 54.8656 161.104 55.8768 163.17C63.0792 178.962 62.8303 178.224 64.1215 178.372C67.6682 177.29 96.6025 167.172 96.7892 167.073C98.7804 166.352 97.6292 165.204 92.309 153.823C90.4423 149.691 90.5045 149.133 89.0889 149.625ZM95.8092 165.778L64.1992 176.781C63.8259 176.781 64.3393 177.716 57.3079 163.056C56.9501 162.318 55.0678 163.318 77.2663 155.479C81.1242 154.118 84.7955 152.757 88.9178 151.33C89.9912 150.97 89.1356 149.855 93.5846 159.53C96.4003 165.827 96.5247 165.532 95.8247 165.778H95.8092Z" fill="#000001"/>
<path d="M87.2812 164.581C87.0789 164.581 66.9338 171.14 65.5027 171.862C64.8027 172.173 64.1649 173.157 65.0204 173.387C65.3004 173.387 88.059 166.385 89.2568 164.925C88.6345 163.712 88.1056 164.548 87.2812 164.581Z" fill="#000001"/>
<path d="M68.5043 163.154C71.0711 162.679 70.9777 161.809 72.4867 161.891C75.3645 161.482 76.4535 160.252 79.0669 159.563C81.6803 158.874 82.427 159.071 84.4648 157.923C84.9626 157.661 85.3049 156.742 84.2471 156.513C84.0604 156.513 82.8626 156.89 81.1358 157.349C74.9912 158.989 74.1356 160.202 72.5489 160.17C70.7133 160.17 70.7911 160.957 68.0532 161.596C61.8308 163.056 62.8419 163.679 61.1774 163.761C60.9752 163.761 60.6485 164.269 60.5863 164.466C60.4463 165.056 62.1419 165.401 62.9508 164.925C64.6814 163.975 66.5647 163.376 68.5043 163.154Z" fill="#000001"/>
<path d="M73.7647 81.325C76.0359 78.1436 74.698 78.6028 82.1805 81.325C82.3362 81.4009 82.5108 81.4228 82.6791 81.3874C82.8473 81.352 83.0006 81.2611 83.1166 81.1278C83.2326 80.9945 83.3055 80.8259 83.3245 80.6461C83.3436 80.4664 83.3079 80.2849 83.2228 80.1279C82.4039 78.2544 81.4577 76.4459 80.3916 74.7163C79.7538 73.8635 83.0361 70.1738 83.0983 68.1568C83.1916 65.1886 77.4203 70.1246 76.1603 68.3863C75.1492 66.9924 73.6091 65.451 72.598 63.7619C72.1468 62.9911 71.2757 62.7124 71.1357 63.6307C69.9379 72.0105 71.8668 69.9442 67.4334 71.7481C64.9599 72.7648 64.8822 72.7484 64.7422 73.5847C64.3066 76.2249 70.0934 76.6021 70.109 77.7992C70.2023 83.1944 70.0001 82.8665 70.109 83.998C70.1309 84.1497 70.1913 84.2925 70.2837 84.4111C70.3763 84.5297 70.4974 84.6198 70.6344 84.6718C70.7714 84.7239 70.9192 84.7361 71.0622 84.7068C71.2052 84.6777 71.3381 84.6084 71.4468 84.5063C72.3025 83.5161 73.0779 82.4518 73.7647 81.325ZM70.2646 75.8314C64.9444 73.7323 64.9444 74.1915 70.7935 71.9613C72.0691 71.4693 71.4624 68.5339 72.3491 66.0085C77.9026 71.4857 73.2202 71.0265 81.3405 69.0587C80.1427 72.4368 77.6537 73.4044 79.0848 75.159C79.8848 76.3395 80.5776 77.5968 81.1538 78.9144C81.5427 79.6031 79.5982 78.9143 76.8448 77.832C75.2892 77.2253 75.647 75.9954 71.9757 81.407C70.5446 83.5224 72.6135 76.7497 70.2646 75.8314Z" fill="#000001"/>
<path d="M43.8239 52.6604C44.5706 51.8077 44.5862 51.8077 45.2706 52.6604C45.9673 53.5338 46.4957 54.542 46.8262 55.6286C47.1062 56.6781 46.0484 56.1205 45.7217 56.1369C44.1661 56.1369 44.8039 57.3668 45.1928 57.5636C49.0196 59.5151 50.6686 54.8742 50.7775 56.3993C50.9486 58.4656 50.933 60.7122 51.0264 63.418C51.0264 64.6479 51.9753 65.5826 52.7686 64.8283C53.562 64.0739 55.6776 61.8109 58.6799 58.7279C63.5957 53.6607 63.7979 53.8083 63.7357 52.808C63.0201 41.8208 62.1801 44.6086 65.6024 40.6893C69.7403 35.9828 78.0472 26.406 80.7384 20.6664C84.8919 11.9914 86.5408 2.85733 82.6674 2.39817C77.4872 1.79141 68.4803 6.56344 64.0001 10.7123C60.7871 13.6127 57.7868 16.7648 55.0243 20.1416C45.6906 30.9484 48.3352 29.1937 44.135 29.7841C35.6881 30.932 38.6437 29.0134 28.1434 41.0829C26.8522 42.5751 27.7701 43.5919 28.6101 43.5919C31.1313 43.3142 33.6683 43.2266 36.2014 43.3295C35.7619 43.809 35.4388 44.3936 35.26 45.0332C35.0813 45.6729 35.052 46.3486 35.1747 47.0028C35.4992 48.3026 36.1495 49.4863 37.057 50.4302C37.5704 50.7745 37.9437 50.1678 37.7415 49.5282C37.6482 49.2002 36.0459 46.7076 36.5126 46.1009C36.9792 45.4941 38.1615 46.1009 41.5994 48.8559C42.5483 49.6102 40.7283 50.3318 39.1882 52.726C38.3015 54.1363 39.8727 54.8578 40.2927 55.1858C40.7127 55.5138 41.1016 55.5794 41.5216 55.2678L43.8239 52.6604ZM36.2014 63.6968C25.3122 81.7354 22.8855 100.627 31.2857 124.11C31.4413 124.52 31.9702 126.373 32.4991 125.996C34.1792 124.831 25.2966 110.072 28.2212 88.3605C30.9124 68.3868 43.4195 56.8585 43.7772 55.1202C43.9639 54.2675 43.6683 53.9067 42.7039 54.3003C40.3207 57.2601 38.1472 60.4007 36.2014 63.6968ZM41.0549 46.5601C38.0215 44.1494 36.8237 45.2153 37.3993 44.1822C37.6793 43.6739 37.9593 43.0999 38.4104 43.3131C40.5727 43.5099 41.3194 44.379 43.9328 46.2485C44.3839 46.5764 44.0261 46.9372 43.3106 47.6752C42.8905 48.1671 42.9839 48.0687 41.1172 46.5601H41.0549ZM40.8683 53.9723C39.7171 53.136 39.2038 54.8414 53.0642 37.8195C53.7487 36.9996 54.6198 36.1796 55.0398 37.2783C55.0865 37.3275 40.946 53.9395 40.8683 53.9723ZM49.1907 55.6122C47.8218 56.8421 49.0507 55.6122 46.6862 52.3324C45.5973 50.8237 45.4573 50.8237 45.6595 50.5777C46.9196 49.0199 46.6551 48.2819 49.673 54.4971C49.9841 54.9398 49.673 55.1858 49.2374 55.5794L49.1907 55.6122ZM52.7997 63.0244C52.302 63.5656 52.5353 63.5492 51.9908 55.3334C51.9908 54.5626 58.2133 49.4298 60.22 46.9044C62.2267 44.379 61.7756 44.8054 62.4445 52.3488C62.7712 53.0212 62.6467 52.7588 52.8464 62.9916L52.7997 63.0244ZM67.3136 10.3352C70.4543 7.89147 73.9839 6.05877 77.7361 4.92358C83.6319 3.2837 82.9785 4.92358 83.2585 7.36698C83.1074 9.68755 82.6249 11.9708 81.8274 14.1397C78.0784 23.7822 78.405 22.913 77.3783 20.978C72.6182 12.0406 66.038 11.1715 67.3136 10.3352ZM65.3068 11.975C67.298 9.99079 78.6073 22.2407 76.9739 24.5365C72.1982 31.2928 55.5843 50.9713 51.1975 53.8083C50.2838 51.9339 49.2442 50.1309 48.0863 48.4131C47.6974 47.8064 47.6507 48.2163 53.142 41.7716C56.2532 38.0327 57.1399 37.6063 56.051 36.196C55.5843 35.5893 54.3398 34.7037 53.5464 35.5565C52.7531 36.4092 52.3175 36.9832 48.4129 41.706C44.8195 46.0353 45.5662 45.5433 44.2906 44.5266C39.1571 40.4433 38.2393 43.6575 41.5216 39.2462C48.8829 29.6286 56.8114 20.5092 65.2602 11.9422L65.3068 11.975ZM37.1659 32.8015C37.8037 32.0143 37.8037 32.1455 45.4417 31.1616C46.6396 30.9976 43.2483 33.9002 40.7749 37.8359C40.2149 38.6886 38.0993 41.6732 37.2748 41.788C37.2748 41.788 29.4968 42.034 29.4968 41.9848C29.1701 41.6896 33.3236 37.5079 37.1659 32.8015Z" fill="#000001"/>
<path d="M75.9164 165.27C79.0277 164.319 79.2299 164.024 80.3344 164.008C80.5948 164.025 80.8528 163.945 81.0611 163.779C81.2695 163.614 81.4146 163.375 81.47 163.106C81.47 161.22 75.2475 164.221 72.3074 164.746C69.6318 165.221 63.5494 167.091 62.6627 168.107C62.0404 168.829 62.3827 169.239 63.2227 169.288C66.3339 168.173 65.9139 168.025 67.0339 167.648C73.5364 165.779 69.0562 167.353 75.9164 165.27Z" fill="#000001"/>
<path d="M70.4208 113.154C69.4563 113.286 66.2518 114.024 65.754 114.171C64.8362 114.417 61.9583 107.71 61.2272 110.203C59.4382 116.336 61.8961 115.336 57.3382 115.746C55.4714 115.91 55.4403 116.434 55.487 117.386C55.487 118.025 55.7048 118.156 56.8248 118.878C61.8805 122.157 59.6716 119.78 59.2516 125.847C59.2516 126.683 59.656 127.077 60.2938 126.864C61.7405 126.356 64.0273 121.944 65.0851 122.518C66.6155 123.076 68.1733 123.547 69.7519 123.928C70.6386 124.191 71.0119 123.699 70.903 122.977C70.7319 121.829 69.5341 121.337 68.3363 119.009C68.0718 118.468 68.1341 118.714 71.1053 114.958C71.6186 114.27 71.852 112.974 70.4208 113.154ZM66.9985 119.714C68.4452 122.403 69.0363 122.157 66.2207 121.501C62.9539 120.731 64.4317 120.501 61.0405 124.125C60.636 124.568 61.1183 122.764 61.2427 121.059C61.3827 119.025 57.6493 118.369 57.1048 117.303C57.3693 117.303 56.9026 117.303 59.2982 117.057C62.2539 116.795 60.8538 115.04 62.145 112.253C63.2028 113.204 64.2917 116.057 65.2562 115.844C73.1431 113.909 65.2873 116.533 66.9985 119.714Z" fill="#000001"/>
<path d="M64.6024 30.8656C72.1159 30.4557 71.587 18.8617 64.369 19.0421C56.4199 20.0588 57.8666 31.1608 64.6024 30.8656ZM63.7779 20.6492C64.3837 20.5359 65.0057 20.5654 65.5993 20.7354C66.193 20.9054 66.7435 21.2118 67.2116 21.6326C67.6798 22.0535 68.0536 22.5782 68.3065 23.1694C68.5596 23.7605 68.6853 24.4033 68.6747 25.0517C68.6642 25.7002 68.5177 26.3381 68.2457 26.9197C67.9738 27.5014 67.583 28.0124 67.1016 28.4161C66.6201 28.8198 66.0599 29.106 65.4611 29.2546C64.8622 29.4031 64.2397 29.4101 63.6379 29.275C62.6921 29.0626 61.8456 28.5102 61.2436 27.7123C60.6415 26.9145 60.3213 25.9207 60.3379 24.9014C60.3544 23.8819 60.7066 22.9003 61.3343 22.1247C61.9619 21.349 62.8257 20.8274 63.7779 20.6492Z" fill="#000001"/>
<path d="M47.4428 139.951C46.4161 140.148 46.2138 141.591 47.5361 141.591C54.2874 141.476 54.6297 128.587 48.1272 128.685C47.4203 128.658 46.7145 128.763 46.0427 128.997C45.9494 128.062 47.5983 123.979 45.856 120.797C43.9271 117.288 38.3425 117.518 36.5224 122.355C35.8238 124.448 35.5246 126.665 35.6421 128.88C35.7595 131.096 36.2914 133.263 37.2069 135.261C37.5647 135.999 38.4669 135.573 38.2491 134.589C33.5823 120.601 42.7137 116.993 44.7671 122.044C46.4783 126.258 42.7759 130.915 44.3782 131.883C45.5138 132.555 46.0894 129.915 48.2828 130.243C51.1295 130.768 51.6429 134.031 51.1762 136.212C50.3829 139.803 48.2361 139.787 47.4428 139.951Z" fill="#000001"/>
<path d="M31.3442 127.487C22.6484 112.433 20.455 86.1132 31.2042 64.6637C33.6767 60.0936 36.4472 55.7101 39.4956 51.5446C40.9423 50.0523 39.4956 49.2652 38.7022 50.2163C29.6953 61.4495 22.6328 77.7171 22.6328 92.3776C22.6328 113.86 27.7352 124.322 30.2864 127.537C31.5309 129.045 32.1687 128.914 31.3442 127.487Z" fill="#000001"/>
<path d="M24.13 140.443C16.3519 143.017 17.2386 133.506 24.9389 136.802C25.0339 136.862 25.1403 136.9 25.2507 136.913C25.3611 136.926 25.4727 136.913 25.578 136.876C25.6831 136.839 25.7793 136.777 25.8597 136.697C25.9402 136.616 26.0028 136.518 26.0434 136.408C26.4634 135.408 25.6389 135.162 24.8456 134.883C20.5988 133.391 25.3278 124.847 31.208 135.277C31.6902 136.13 32.5147 135.539 32.328 134.883C31.0835 130.21 26.1056 126.684 22.9944 129.554C22.3329 130.143 21.8903 130.96 21.7451 131.861C21.5999 132.761 21.7614 133.686 22.201 134.473C18.5298 134.572 17.5342 136.113 17.1142 138.13C16.2742 142.886 23.5388 143.444 25.39 141.574C26.1056 140.82 25.5145 139.983 24.13 140.443Z" fill="#000001"/>
<path d="M13.5657 111.302C13.3323 110.81 13.1768 109.859 12.1034 110.547C7.73214 113.352 8.61884 112.909 7.43658 111.581C5.66319 109.629 5.21206 108.875 4.32537 109.104C3.93646 109.219 4.0298 110.055 4.12314 110.498C5.19651 115.746 5.53874 114.352 3.51645 115.139C3.04977 115.336 2.64531 115.565 0.747473 116.402C0.568708 116.488 0.417296 116.627 0.311126 116.801C0.204956 116.976 0.148438 117.179 0.148438 117.386C0.148438 117.593 0.204956 117.796 0.311126 117.97C0.417296 118.145 0.568708 118.283 0.747473 118.37C6.53433 120.649 5.22762 120.223 5.61652 122.797C6.06765 125.749 6.14543 126.487 6.73656 126.553C6.97755 126.587 7.22255 126.536 7.43347 126.409C7.64438 126.281 7.80953 126.084 7.90326 125.847C10.33 119.632 8.74329 121.272 11.0145 121.699C14.919 122.437 15.1213 122.846 15.6813 122.125C16.2413 121.403 15.1057 120.337 14.5457 119.665C10.8745 115.205 11.9634 118.156 13.5657 111.302ZM12.4145 120.272C11.5833 120.206 10.7761 119.949 10.05 119.518C8.08993 118.845 8.08993 122.978 7.31213 123.683C7.12377 122.816 7.01955 121.932 7.00101 121.043C7.00101 119.239 6.06765 119.108 3.23644 117.468C2.6142 117.09 4.0298 116.943 5.63208 116.09C7.23435 115.237 5.95875 113.598 5.92764 112.45C5.92764 111.761 7.01656 113.417 7.70103 114.319C8.75884 115.713 8.88329 113.499 11.8545 112.564C11.3567 115.27 9.62998 115.975 11.2945 117.845C13.7212 120.583 13.0679 120.337 12.4145 120.272Z" fill="#000001"/>
<defs>
<linearGradient id="paint0_linear_208_11703" x1="-98.1969" y1="-141.535" x2="343.092" y2="-118.523" gradientUnits="userSpaceOnUse">
<stop offset="0.344582" stop-color="#EE611A"/>
<stop offset="0.609343" stop-color="#9F3EFF"/>
<stop offset="0.782387" stop-color="#4DAFEC"/>
</linearGradient>
</defs>
</svg>
