<svg width="40" height="40" viewBox="0 0 40 40" fill="none" xmlns="http://www.w3.org/2000/svg">
<path d="M6.66732 31.6667V13.3333V31.6667ZM6.66732 35C5.75065 35 4.96621 34.6739 4.31398 34.0217C3.66065 33.3683 3.33398 32.5833 3.33398 31.6667V13.3333C3.33398 12.4167 3.66065 11.6322 4.31398 10.98C4.96621 10.3267 5.75065 10 6.66732 10H13.334V6.66668C13.334 5.75001 13.6607 4.96501 14.314 4.31168C14.9662 3.65945 15.7507 3.33334 16.6673 3.33334H23.334C24.2507 3.33334 25.0357 3.65945 25.689 4.31168C26.3412 4.96501 26.6673 5.75001 26.6673 6.66668V10H33.334C34.2507 10 35.0357 10.3267 35.689 10.98C36.3412 11.6322 36.6673 12.4167 36.6673 13.3333V20.4583C36.1673 20.0972 35.6395 19.7845 35.084 19.52C34.5284 19.2567 33.9451 19.0278 33.334 18.8333V13.3333H6.66732V31.6667H18.459C18.5423 32.25 18.6673 32.8195 18.834 33.375C19.0007 33.9306 19.209 34.4722 19.459 35H6.66732ZM16.6673 10H23.334V6.66668H16.6673V10ZM30.0007 38.3333C27.6951 38.3333 25.7301 37.5211 24.1057 35.8967C22.4801 34.2711 21.6673 32.3056 21.6673 30C21.6673 27.6945 22.4801 25.7289 24.1057 24.1033C25.7301 22.4789 27.6951 21.6667 30.0007 21.6667C32.3062 21.6667 34.2718 22.4789 35.8973 24.1033C37.5218 25.7289 38.334 27.6945 38.334 30C38.334 32.3056 37.5218 34.2711 35.8973 35.8967C34.2718 37.5211 32.3062 38.3333 30.0007 38.3333ZM32.7507 33.9167L33.9173 32.75L30.834 29.6667V25H29.1673V30.3333L32.7507 33.9167Z" fill="#2C333A"/>
</svg>
