<svg width="40" height="40" viewBox="0 0 40 40" fill="none" xmlns="http://www.w3.org/2000/svg">
<path d="M21.199 18C20.399 17.8 19.599 17.4 18.999 16.8C18.399 16.6 18.199 16 18.199 15.6C18.199 15.2 18.399 14.6 18.799 14.4C19.399 14 19.999 13.6 20.599 13.8C21.799 13.8 22.799 14.4 23.399 15.2L25.199 12.8C24.599 12.2 23.999 11.8 23.399 11.4C22.799 11 21.999 10.8 21.199 10.8V8H18.799V10.8C17.799 11 16.799 11.6 15.999 12.4C15.199 13.4 14.599 14.6 14.799 15.8C14.799 17 15.199 18.2 15.999 19C16.999 20 18.399 20.6 19.599 21.2C20.199 21.4 20.999 21.8 21.599 22.2C21.999 22.6 22.199 23.2 22.199 23.8C22.199 24.4 21.999 25 21.599 25.6C20.999 26.2 20.199 26.4 19.599 26.4C18.799 26.4 17.799 26.2 17.199 25.6C16.599 25.2 15.999 24.6 15.599 24L13.599 26.2C14.199 27 14.799 27.6 15.599 28.2C16.599 28.8 17.799 29.4 18.999 29.4V32H21.199V29C22.399 28.8 23.399 28.2 24.199 27.4C25.199 26.4 25.799 24.8 25.799 23.4C25.799 22.2 25.399 20.8 24.399 20C23.399 19 22.399 18.4 21.199 18ZM19.999 4C11.199 4 3.99902 11.2 3.99902 20C3.99902 28.8 11.199 36 19.999 36C28.799 36 35.999 28.8 35.999 20C35.999 11.2 28.799 4 19.999 4ZM19.999 33.8C12.399 33.8 6.19902 27.6 6.19902 20C6.19902 12.4 12.399 6.2 19.999 6.2C27.599 6.2 33.799 12.4 33.799 20C33.799 27.6 27.599 33.8 19.999 33.8Z" fill="#2C333A"/>
</svg>
