<svg width="40" height="40" viewBox="0 0 40 40" fill="none" xmlns="http://www.w3.org/2000/svg">
<path d="M26.4962 25.0938C27.4415 24.5859 28.5235 24.2969 29.6759 24.2969H29.6798C29.797 24.2969 29.8517 24.1562 29.7657 24.0781C28.5673 23.0027 27.1984 22.134 25.7149 21.5078C25.6993 21.5 25.6837 21.4961 25.6681 21.4883C28.0938 19.7266 29.672 16.8633 29.672 13.6328C29.672 8.28125 25.3438 3.94531 20.004 3.94531C14.6642 3.94531 10.3399 8.28125 10.3399 13.6328C10.3399 16.8633 11.9181 19.7266 14.3478 21.4883C14.3321 21.4961 14.3165 21.5 14.3009 21.5078C12.5548 22.2461 10.9884 23.3047 9.64072 24.6562C8.30085 25.9937 7.23414 27.5792 6.5001 29.3242C5.77788 31.0331 5.38811 32.8639 5.35166 34.7188C5.35062 34.7604 5.35793 34.8019 5.37317 34.8407C5.3884 34.8796 5.41126 34.9149 5.44038 34.9448C5.4695 34.9746 5.50431 34.9984 5.54274 35.0146C5.58117 35.0307 5.62246 35.0391 5.66416 35.0391H8.004C8.17197 35.0391 8.3126 34.9023 8.3165 34.7344C8.39463 31.7188 9.60166 28.8945 11.7384 26.7539C13.9454 24.5391 16.8829 23.3203 20.0079 23.3203C22.2228 23.3203 24.3478 23.9336 26.1798 25.082C26.2268 25.1116 26.2809 25.1283 26.3364 25.1303C26.392 25.1324 26.4471 25.1198 26.4962 25.0938ZM20.0079 20.3516C18.2188 20.3516 16.5353 19.6523 15.2657 18.3828C14.6411 17.7598 14.1459 17.0194 13.8087 16.2041C13.4715 15.3889 13.2989 14.515 13.3009 13.6328C13.3009 11.8398 14.0001 10.1523 15.2657 8.88281C16.5313 7.61328 18.2149 6.91406 20.0079 6.91406C21.8009 6.91406 23.4806 7.61328 24.7501 8.88281C25.3747 9.50582 25.8699 10.2463 26.2071 11.0615C26.5443 11.8767 26.7169 12.7506 26.7149 13.6328C26.7149 15.4258 26.0157 17.1133 24.7501 18.3828C23.4806 19.6523 21.797 20.3516 20.0079 20.3516ZM34.3751 29.6484H31.0938V26.3672C31.0938 26.1953 30.9532 26.0547 30.7813 26.0547H28.5938C28.422 26.0547 28.2813 26.1953 28.2813 26.3672V29.6484H25.0001C24.8282 29.6484 24.6876 29.7891 24.6876 29.9609V32.1484C24.6876 32.3203 24.8282 32.4609 25.0001 32.4609H28.2813V35.7422C28.2813 35.9141 28.422 36.0547 28.5938 36.0547H30.7813C30.9532 36.0547 31.0938 35.9141 31.0938 35.7422V32.4609H34.3751C34.547 32.4609 34.6876 32.3203 34.6876 32.1484V29.9609C34.6876 29.7891 34.547 29.6484 34.3751 29.6484Z" fill="#2C333A"/>
</svg>
